# Blender 5.1.2
# www.blender.org
mtllib missile_iron_dome.mtl
o Node
v -0.016875 0.015428 -0.045601
v -0.012632 0.015428 -0.029649
v -0.012632 0.301728 -0.029649
v -0.016875 0.301728 -0.045601
v -0.012632 0.015428 -0.029649
v -0.001042 0.015428 -0.017971
v -0.001042 0.301728 -0.017971
v -0.012632 0.301728 -0.029649
v -0.001042 0.015428 -0.017971
v 0.014791 0.015428 -0.013697
v 0.014791 0.301728 -0.013697
v -0.001042 0.301728 -0.017971
v 0.014791 0.015428 -0.013697
v 0.030624 0.015428 -0.017971
v 0.030624 0.301728 -0.017971
v 0.014791 0.301728 -0.013697
v 0.030624 0.015428 -0.017971
v 0.042214 0.015428 -0.029649
v 0.042214 0.301728 -0.029649
v 0.030624 0.301728 -0.017971
v 0.042214 0.015428 -0.029649
v 0.046457 0.015428 -0.045601
v 0.046457 0.301728 -0.045601
v 0.042214 0.301728 -0.029649
v 0.046457 0.015428 -0.045601
v 0.042214 0.015428 -0.061553
v 0.042214 0.301728 -0.061553
v 0.046457 0.301728 -0.045601
v 0.042214 0.015428 -0.061553
v 0.030624 0.015428 -0.073230
v 0.030624 0.301728 -0.073230
v 0.042214 0.301728 -0.061553
v 0.030624 0.015428 -0.073230
v 0.014791 0.015428 -0.077505
v 0.014791 0.301728 -0.077505
v 0.030624 0.301728 -0.073230
v 0.014791 0.015428 -0.077505
v -0.001042 0.015428 -0.073230
v -0.001042 0.301728 -0.073230
v 0.014791 0.301728 -0.077505
v -0.001042 0.015428 -0.073230
v -0.012632 0.015428 -0.061553
v -0.012632 0.301728 -0.061553
v -0.001042 0.301728 -0.073230
v -0.012632 0.015428 -0.061553
v -0.016875 0.015428 -0.045601
v -0.016875 0.301728 -0.045601
v -0.012632 0.301728 -0.061553
v -0.007422 0.316464 -0.058522
v 0.001966 0.316464 -0.067981
v -0.001042 0.301728 -0.073230
v -0.012632 0.301728 -0.061553
v -0.016875 -0.009133 -0.045601
v -0.012632 -0.009133 -0.029649
v -0.012632 0.015428 -0.029649
v -0.016875 0.015428 -0.045601
v 0.001966 0.316464 -0.067981
v 0.014791 0.316464 -0.071443
v 0.014791 0.301728 -0.077505
v -0.001042 0.301728 -0.073230
v 0.014791 0.316464 -0.071443
v 0.027616 0.316464 -0.067981
v 0.030624 0.301728 -0.073230
v 0.014791 0.301728 -0.077505
v 0.027616 0.316464 -0.067981
v 0.037004 0.316464 -0.058522
v 0.042214 0.301728 -0.061553
v 0.030624 0.301728 -0.073230
v 0.037004 0.316464 -0.058522
v 0.040440 0.316464 -0.045601
v 0.046457 0.301728 -0.045601
v 0.042214 0.301728 -0.061553
v 0.040440 0.316464 -0.045601
v 0.037004 0.316464 -0.032680
v 0.042214 0.301728 -0.029649
v 0.046457 0.301728 -0.045601
v 0.037004 0.316464 -0.032680
v 0.027616 0.316464 -0.023221
v 0.030624 0.301728 -0.017971
v 0.042214 0.301728 -0.029649
v 0.027616 0.316464 -0.023221
v 0.014791 0.316464 -0.019759
v 0.014791 0.301728 -0.013697
v 0.030624 0.301728 -0.017971
v 0.014791 0.316464 -0.019759
v 0.001966 0.316464 -0.023221
v -0.001042 0.301728 -0.017971
v 0.014791 0.301728 -0.013697
v 0.001966 0.316464 -0.023221
v -0.007422 0.316464 -0.032680
v -0.012632 0.301728 -0.029649
v -0.001042 0.301728 -0.017971
v -0.007422 0.316464 -0.032680
v -0.010858 0.316464 -0.045601
v -0.016875 0.301728 -0.045601
v -0.012632 0.301728 -0.029649
v -0.010858 0.316464 -0.045601
v -0.007422 0.316464 -0.058522
v -0.012632 0.301728 -0.061553
v -0.016875 0.301728 -0.045601
v 0.000217 0.329797 -0.054078
v 0.006377 0.329797 -0.060284
v 0.001966 0.316464 -0.067981
v -0.007422 0.316464 -0.058522
v 0.006377 0.329797 -0.060284
v 0.014791 0.329797 -0.062556
v 0.014791 0.316464 -0.071443
v 0.001966 0.316464 -0.067981
v 0.014791 0.329797 -0.062556
v 0.023205 0.329797 -0.060284
v 0.027616 0.316464 -0.067981
v 0.014791 0.316464 -0.071443
v 0.023205 0.329797 -0.060284
v 0.029365 0.329797 -0.054078
v 0.037004 0.316464 -0.058522
v 0.027616 0.316464 -0.067981
v 0.029365 0.329797 -0.054078
v 0.031619 0.329797 -0.045601
v 0.040440 0.316464 -0.045601
v 0.037004 0.316464 -0.058522
v 0.031619 0.329797 -0.045601
v 0.029365 0.329797 -0.037123
v 0.037004 0.316464 -0.032680
v 0.040440 0.316464 -0.045601
v 0.029365 0.329797 -0.037123
v 0.023205 0.329797 -0.030917
v 0.027616 0.316464 -0.023221
v 0.037004 0.316464 -0.032680
v 0.023205 0.329797 -0.030917
v 0.014791 0.329797 -0.028646
v 0.014791 0.316464 -0.019759
v 0.027616 0.316464 -0.023221
v 0.014791 0.329797 -0.028646
v 0.006377 0.329797 -0.030917
v 0.001966 0.316464 -0.023221
v 0.014791 0.316464 -0.019759
v 0.006377 0.329797 -0.030917
v 0.000217 0.329797 -0.037123
v -0.007422 0.316464 -0.032680
v 0.001966 0.316464 -0.023221
v 0.000217 0.329797 -0.037123
v -0.002037 0.329797 -0.045601
v -0.010858 0.316464 -0.045601
v -0.007422 0.316464 -0.032680
v -0.002037 0.329797 -0.045601
v 0.000217 0.329797 -0.054078
v -0.007422 0.316464 -0.058522
v -0.010858 0.316464 -0.045601
v 0.007820 0.336814 -0.049656
v 0.010766 0.336814 -0.052624
v 0.006377 0.329797 -0.060284
v 0.000217 0.329797 -0.054078
v 0.010766 0.336814 -0.052624
v 0.014791 0.336814 -0.053711
v 0.014791 0.329797 -0.062556
v 0.006377 0.329797 -0.060284
v 0.014791 0.336814 -0.053711
v 0.018815 0.336814 -0.052624
v 0.023205 0.329797 -0.060284
v 0.014791 0.329797 -0.062556
v 0.018815 0.336814 -0.052624
v 0.021762 0.336814 -0.049656
v 0.029365 0.329797 -0.054078
v 0.023205 0.329797 -0.060284
v 0.021762 0.336814 -0.049656
v 0.022840 0.336814 -0.045601
v 0.031619 0.329797 -0.045601
v 0.029365 0.329797 -0.054078
v 0.022840 0.336814 -0.045601
v 0.021762 0.336814 -0.041546
v 0.029365 0.329797 -0.037123
v 0.031619 0.329797 -0.045601
v 0.021762 0.336814 -0.041546
v 0.018815 0.336814 -0.038578
v 0.023205 0.329797 -0.030917
v 0.029365 0.329797 -0.037123
v 0.018815 0.336814 -0.038578
v 0.014791 0.336814 -0.037491
v 0.014791 0.329797 -0.028646
v 0.023205 0.329797 -0.030917
v 0.014791 0.336814 -0.037491
v 0.010766 0.336814 -0.038578
v 0.006377 0.329797 -0.030917
v 0.014791 0.329797 -0.028646
v 0.010766 0.336814 -0.038578
v 0.007820 0.336814 -0.041546
v 0.000217 0.329797 -0.037123
v 0.006377 0.329797 -0.030917
v 0.007820 0.336814 -0.041546
v 0.006742 0.336814 -0.045601
v -0.002037 0.329797 -0.045601
v 0.000217 0.329797 -0.037123
v 0.006742 0.336814 -0.045601
v 0.007820 0.336814 -0.049656
v 0.000217 0.329797 -0.054078
v -0.002037 0.329797 -0.045601
v 0.011086 0.339621 -0.047756
v 0.012652 0.339621 -0.049333
v 0.010766 0.336814 -0.052624
v 0.007820 0.336814 -0.049656
v 0.012652 0.339621 -0.049333
v 0.014791 0.339621 -0.049911
v 0.014791 0.336814 -0.053711
v 0.010766 0.336814 -0.052624
v 0.014791 0.339621 -0.049911
v 0.016930 0.339621 -0.049333
v 0.018815 0.336814 -0.052624
v 0.014791 0.336814 -0.053711
v 0.016930 0.339621 -0.049333
v 0.018495 0.339621 -0.047756
v 0.021762 0.336814 -0.049656
v 0.018815 0.336814 -0.052624
v 0.018495 0.339621 -0.047756
v 0.019069 0.339621 -0.045601
v 0.022840 0.336814 -0.045601
v 0.021762 0.336814 -0.049656
v 0.019069 0.339621 -0.045601
v 0.018495 0.339621 -0.043446
v 0.021762 0.336814 -0.041546
v 0.022840 0.336814 -0.045601
v 0.018495 0.339621 -0.043446
v 0.016930 0.339621 -0.041869
v 0.018815 0.336814 -0.038578
v 0.021762 0.336814 -0.041546
v 0.016930 0.339621 -0.041869
v 0.014791 0.339621 -0.041291
v 0.014791 0.336814 -0.037491
v 0.018815 0.336814 -0.038578
v 0.014791 0.339621 -0.041291
v 0.012652 0.339621 -0.041869
v 0.010766 0.336814 -0.038578
v 0.014791 0.336814 -0.037491
v 0.012652 0.339621 -0.041869
v 0.011086 0.339621 -0.043446
v 0.007820 0.336814 -0.041546
v 0.010766 0.336814 -0.038578
v 0.011086 0.339621 -0.043446
v 0.010513 0.339621 -0.045601
v 0.006742 0.336814 -0.045601
v 0.007820 0.336814 -0.041546
v 0.010513 0.339621 -0.045601
v 0.011086 0.339621 -0.047756
v 0.007820 0.336814 -0.049656
v 0.006742 0.336814 -0.045601
v 0.010513 0.339621 -0.045601
v 0.011086 0.339621 -0.043446
v 0.012652 0.339621 -0.041869
v 0.014791 0.339621 -0.041291
v 0.016930 0.339621 -0.041869
v 0.018495 0.339621 -0.043446
v 0.019069 0.339621 -0.045601
v 0.018495 0.339621 -0.047756
v 0.016930 0.339621 -0.049333
v 0.014791 0.339621 -0.049911
v 0.012652 0.339621 -0.049333
v 0.011086 0.339621 -0.047756
v -0.012632 -0.009133 -0.029649
v -0.001042 -0.009133 -0.017971
v -0.001042 0.015428 -0.017971
v -0.012632 0.015428 -0.029649
v -0.001042 -0.009133 -0.017971
v 0.014791 -0.009133 -0.013697
v 0.014791 0.015428 -0.013697
v -0.001042 0.015428 -0.017971
v 0.014791 -0.009133 -0.013697
v 0.030624 -0.009133 -0.017971
v 0.030624 0.015428 -0.017971
v 0.014791 0.015428 -0.013697
v 0.030624 -0.009133 -0.017971
v 0.042214 -0.009133 -0.029649
v 0.042214 0.015428 -0.029649
v 0.030624 0.015428 -0.017971
v 0.042214 -0.009133 -0.029649
v 0.046457 -0.009133 -0.045601
v 0.046457 0.015428 -0.045601
v 0.042214 0.015428 -0.029649
v 0.046457 -0.009133 -0.045601
v 0.042214 -0.009133 -0.061553
v 0.042214 0.015428 -0.061553
v 0.046457 0.015428 -0.045601
v 0.042214 -0.009133 -0.061553
v 0.030624 -0.009133 -0.073230
v 0.030624 0.015428 -0.073230
v 0.042214 0.015428 -0.061553
v 0.030624 -0.009133 -0.073230
v 0.014791 -0.009133 -0.077505
v 0.014791 0.015428 -0.077505
v 0.030624 0.015428 -0.073230
v 0.014791 -0.009133 -0.077505
v -0.001042 -0.009133 -0.073230
v -0.001042 0.015428 -0.073230
v 0.014791 0.015428 -0.077505
v -0.001042 -0.009133 -0.073230
v -0.012632 -0.009133 -0.061553
v -0.012632 0.015428 -0.061553
v -0.001042 0.015428 -0.073230
v -0.012632 -0.009133 -0.061553
v -0.016875 -0.009133 -0.045601
v -0.016875 0.015428 -0.045601
v -0.012632 0.015428 -0.061553
v -0.010858 -0.009133 -0.045601
v -0.007422 -0.009133 -0.032680
v -0.012632 -0.009133 -0.029649
v -0.016875 -0.009133 -0.045601
v -0.007422 -0.009133 -0.032680
v 0.001966 -0.009133 -0.023221
v -0.001042 -0.009133 -0.017971
v -0.012632 -0.009133 -0.029649
v 0.001966 -0.009133 -0.023221
v 0.014791 -0.009133 -0.019758
v 0.014791 -0.009133 -0.013697
v -0.001042 -0.009133 -0.017971
v 0.014791 -0.009133 -0.019758
v 0.027616 -0.009133 -0.023221
v 0.030624 -0.009133 -0.017971
v 0.014791 -0.009133 -0.013697
v 0.027616 -0.009133 -0.023221
v 0.037004 -0.009133 -0.032680
v 0.042214 -0.009133 -0.029649
v 0.030624 -0.009133 -0.017971
v 0.037004 -0.009133 -0.032680
v 0.040440 -0.009133 -0.045601
v 0.046457 -0.009133 -0.045601
v 0.042214 -0.009133 -0.029649
v 0.040440 -0.009133 -0.045601
v 0.037004 -0.009133 -0.058522
v 0.042214 -0.009133 -0.061553
v 0.046457 -0.009133 -0.045601
v 0.037004 -0.009133 -0.058522
v 0.027616 -0.009133 -0.067981
v 0.030624 -0.009133 -0.073230
v 0.042214 -0.009133 -0.061553
v 0.027616 -0.009133 -0.067981
v 0.014791 -0.009133 -0.071443
v 0.014791 -0.009133 -0.077505
v 0.030624 -0.009133 -0.073230
v 0.014791 -0.009133 -0.071443
v 0.001966 -0.009133 -0.067981
v -0.001042 -0.009133 -0.073230
v 0.014791 -0.009133 -0.077505
v 0.001966 -0.009133 -0.067981
v -0.007422 -0.009133 -0.058522
v -0.012632 -0.009133 -0.061553
v -0.001042 -0.009133 -0.073230
v -0.007422 -0.009133 -0.058522
v -0.010858 -0.009133 -0.045601
v -0.016875 -0.009133 -0.045601
v -0.012632 -0.009133 -0.061553
v -0.010858 0.039988 -0.045601
v -0.007422 0.039988 -0.032680
v -0.007422 -0.009133 -0.032680
v -0.010858 -0.009133 -0.045601
v -0.007422 0.039988 -0.032680
v 0.001966 0.039988 -0.023221
v 0.001966 -0.009133 -0.023221
v -0.007422 -0.009133 -0.032680
v 0.001966 0.039988 -0.023221
v 0.014791 0.039988 -0.019759
v 0.014791 -0.009133 -0.019758
v 0.001966 -0.009133 -0.023221
v 0.014791 0.039988 -0.019759
v 0.027616 0.039988 -0.023221
v 0.027616 -0.009133 -0.023221
v 0.014791 -0.009133 -0.019758
v 0.027616 0.039988 -0.023221
v 0.037004 0.039988 -0.032680
v 0.037004 -0.009133 -0.032680
v 0.027616 -0.009133 -0.023221
v 0.037004 0.039988 -0.032680
v 0.040440 0.039988 -0.045601
v 0.040440 -0.009133 -0.045601
v 0.037004 -0.009133 -0.032680
v 0.040440 0.039988 -0.045601
v 0.037004 0.039988 -0.058522
v 0.037004 -0.009133 -0.058522
v 0.040440 -0.009133 -0.045601
v 0.037004 0.039988 -0.058522
v 0.027616 0.039988 -0.067981
v 0.027616 -0.009133 -0.067981
v 0.037004 -0.009133 -0.058522
v 0.027616 0.039988 -0.067981
v 0.014791 0.039988 -0.071443
v 0.014791 -0.009133 -0.071443
v 0.027616 -0.009133 -0.067981
v 0.014791 0.039988 -0.071443
v 0.001966 0.039988 -0.067981
v 0.001966 -0.009133 -0.067981
v 0.014791 -0.009133 -0.071443
v 0.001966 0.039988 -0.067981
v -0.007422 0.039988 -0.058522
v -0.007422 -0.009133 -0.058522
v 0.001966 -0.009133 -0.067981
v -0.007422 0.039988 -0.058522
v -0.010858 0.039988 -0.045601
v -0.010858 -0.009133 -0.045601
v -0.007422 -0.009133 -0.058522
v -0.007422 0.039988 -0.058522
v 0.001966 0.039988 -0.067981
v 0.014791 0.039988 -0.071443
v 0.027616 0.039988 -0.067981
v 0.037004 0.039988 -0.058522
v 0.040440 0.039988 -0.045601
v 0.037004 0.039988 -0.032680
v 0.027616 0.039988 -0.023221
v 0.014791 0.039988 -0.019759
v 0.001966 0.039988 -0.023221
v -0.007422 0.039988 -0.032680
v -0.010858 0.039988 -0.045601
v 0.007440 0.058232 -0.019394
v 0.007440 0.018936 -0.019394
v 0.007440 0.018936 0.044414
v 0.023273 0.018936 -0.019394
v 0.023273 0.058232 -0.019394
v 0.023273 0.018936 0.044414
v 0.007440 0.018936 -0.019394
v 0.023273 0.018936 -0.019394
v 0.023273 0.018936 0.044414
v 0.007440 0.018936 0.044414
v 0.022142 0.030164 0.040996
v 0.023273 0.058232 -0.019394
v 0.007440 0.058232 -0.019394
v 0.006309 0.030164 0.040996
v 0.023273 0.018936 0.044414
v 0.022142 0.030164 0.040996
v 0.006309 0.030164 0.040996
v 0.007440 0.018936 0.044414
v 0.007440 0.058232 -0.019394
v 0.023273 0.058232 -0.019394
v 0.023273 0.018936 -0.019394
v 0.007440 0.018936 -0.019394
v 0.007440 0.018936 0.044414
v 0.006309 0.030164 0.040996
v 0.007440 0.058232 -0.019394
v 0.023273 0.058232 -0.019394
v 0.022142 0.030164 0.040996
v 0.023273 0.018936 0.044414
v 0.042499 0.058232 -0.038764
v 0.042499 0.018936 -0.038764
v 0.105830 0.018936 -0.038764
v 0.042499 0.018936 -0.054716
v 0.042499 0.058232 -0.054716
v 0.105830 0.018936 -0.054716
v 0.042499 0.018936 -0.038764
v 0.042499 0.018936 -0.054716
v 0.105830 0.018936 -0.054716
v 0.105830 0.018936 -0.038764
v 0.102437 0.030164 -0.053577
v 0.042499 0.058232 -0.054716
v 0.042499 0.058232 -0.038764
v 0.102437 0.030164 -0.037625
v 0.105830 0.018936 -0.054716
v 0.102437 0.030164 -0.053577
v 0.102437 0.030164 -0.037625
v 0.105830 0.018936 -0.038764
v 0.042499 0.058232 -0.038764
v 0.042499 0.058232 -0.054716
v 0.042499 0.018936 -0.054716
v 0.042499 0.018936 -0.038764
v 0.105830 0.018936 -0.038764
v 0.102437 0.030164 -0.037625
v 0.042499 0.058232 -0.038764
v 0.042499 0.058232 -0.054716
v 0.102437 0.030164 -0.053577
v 0.105830 0.018936 -0.054716
v 0.023273 0.059636 -0.074086
v 0.023273 0.020340 -0.074086
v 0.023273 0.020340 -0.137894
v 0.007440 0.020340 -0.074086
v 0.007440 0.059636 -0.074086
v 0.007440 0.020340 -0.137894
v 0.023273 0.020340 -0.074086
v 0.007440 0.020340 -0.074086
v 0.007440 0.020340 -0.137894
v 0.023273 0.020340 -0.137894
v 0.008571 0.031567 -0.134476
v 0.007440 0.059636 -0.074086
v 0.023273 0.059636 -0.074086
v 0.024404 0.031567 -0.134476
v 0.007440 0.020340 -0.137894
v 0.008571 0.031567 -0.134476
v 0.024404 0.031567 -0.134476
v 0.023273 0.020340 -0.137894
v 0.023273 0.059636 -0.074086
v 0.007440 0.059636 -0.074086
v 0.007440 0.020340 -0.074086
v 0.023273 0.020340 -0.074086
v 0.023273 0.020340 -0.137894
v 0.024404 0.031567 -0.134476
v 0.023273 0.059636 -0.074086
v 0.007440 0.059636 -0.074086
v 0.008571 0.031567 -0.134476
v 0.007440 0.020340 -0.137894
v -0.010655 0.061741 -0.053577
v -0.010655 0.022445 -0.053577
v -0.073986 0.022445 -0.053577
v -0.010655 0.022445 -0.037625
v -0.010655 0.061741 -0.037625
v -0.073986 0.022445 -0.037625
v -0.010655 0.022445 -0.053577
v -0.010655 0.022445 -0.037625
v -0.073986 0.022445 -0.037625
v -0.073986 0.022445 -0.053577
v -0.070593 0.033672 -0.038764
v -0.010655 0.061741 -0.037625
v -0.010655 0.061741 -0.053577
v -0.070593 0.033672 -0.054716
v -0.073986 0.022445 -0.037625
v -0.070593 0.033672 -0.038764
v -0.070593 0.033672 -0.054716
v -0.073986 0.022445 -0.053577
v -0.010655 0.061741 -0.053577
v -0.010655 0.061741 -0.037625
v -0.010655 0.022445 -0.037625
v -0.010655 0.022445 -0.053577
v -0.073986 0.022445 -0.053577
v -0.070593 0.033672 -0.054716
v -0.010655 0.061741 -0.053577
v -0.010655 0.061741 -0.037625
v -0.070593 0.033672 -0.038764
v -0.073986 0.022445 -0.037625
v -0.018571 0.010165 -0.045601
v -0.014101 0.010165 -0.028794
v -0.014101 0.017182 -0.028794
v -0.018571 0.017182 -0.045601
v -0.014101 0.010165 -0.028794
v -0.001890 0.010165 -0.016491
v -0.001890 0.017182 -0.016491
v -0.014101 0.017182 -0.028794
v -0.001890 0.010165 -0.016491
v 0.014791 0.010165 -0.011987
v 0.014791 0.017182 -0.011987
v -0.001890 0.017182 -0.016491
v 0.014791 0.010165 -0.011987
v 0.031472 0.010165 -0.016491
v 0.031472 0.017182 -0.016491
v 0.014791 0.017182 -0.011987
v 0.031472 0.010165 -0.016491
v 0.043683 0.010165 -0.028794
v 0.043683 0.017182 -0.028794
v 0.031472 0.017182 -0.016491
v 0.043683 0.010165 -0.028794
v 0.048153 0.010165 -0.045601
v 0.048153 0.017182 -0.045601
v 0.043683 0.017182 -0.028794
v 0.048153 0.010165 -0.045601
v 0.043683 0.010165 -0.062407
v 0.043683 0.017182 -0.062407
v 0.048153 0.017182 -0.045601
v 0.043683 0.010165 -0.062407
v 0.031472 0.010165 -0.074710
v 0.031472 0.017182 -0.074710
v 0.043683 0.017182 -0.062407
v 0.031472 0.010165 -0.074710
v 0.014791 0.010165 -0.079214
v 0.014791 0.017182 -0.079214
v 0.031472 0.017182 -0.074710
v 0.014791 0.010165 -0.079214
v -0.001890 0.010165 -0.074711
v -0.001890 0.017182 -0.074710
v 0.014791 0.017182 -0.079214
v -0.001890 0.010165 -0.074711
v -0.014101 0.010165 -0.062407
v -0.014101 0.017182 -0.062407
v -0.001890 0.017182 -0.074710
v -0.014101 0.010165 -0.062407
v -0.018571 0.010165 -0.045601
v -0.018571 0.017182 -0.045601
v -0.014101 0.017182 -0.062407
v -0.018571 0.017182 -0.045601
v -0.014101 0.017182 -0.028794
v -0.001890 0.017182 -0.016491
v 0.014791 0.017182 -0.011987
v 0.031472 0.017182 -0.016491
v 0.043683 0.017182 -0.028794
v 0.048153 0.017182 -0.045601
v 0.043683 0.017182 -0.062407
v 0.031472 0.017182 -0.074710
v 0.014791 0.017182 -0.079214
v -0.001890 0.017182 -0.074710
v -0.014101 0.017182 -0.062407
v -0.014101 0.010165 -0.062407
v -0.001890 0.010165 -0.074711
v 0.014791 0.010165 -0.079214
v 0.031472 0.010165 -0.074710
v 0.043683 0.010165 -0.062407
v 0.048153 0.010165 -0.045601
v 0.043683 0.010165 -0.028794
v 0.031472 0.010165 -0.016491
v 0.014791 0.010165 -0.011987
v -0.001890 0.010165 -0.016491
v -0.014101 0.010165 -0.028794
v -0.018571 0.010165 -0.045601
v -0.018571 0.143491 -0.045601
v -0.014101 0.143491 -0.028794
v -0.014101 0.150508 -0.028794
v -0.018571 0.150508 -0.045601
v -0.014101 0.143491 -0.028794
v -0.001890 0.143491 -0.016491
v -0.001890 0.150508 -0.016491
v -0.014101 0.150508 -0.028794
v -0.001890 0.143491 -0.016491
v 0.014791 0.143491 -0.011987
v 0.014791 0.150508 -0.011987
v -0.001890 0.150508 -0.016491
v 0.014791 0.143491 -0.011987
v 0.031472 0.143491 -0.016491
v 0.031472 0.150508 -0.016491
v 0.014791 0.150508 -0.011987
v 0.031472 0.143491 -0.016491
v 0.043683 0.143491 -0.028794
v 0.043683 0.150508 -0.028794
v 0.031472 0.150508 -0.016491
v 0.043683 0.143491 -0.028794
v 0.048153 0.143491 -0.045601
v 0.048153 0.150508 -0.045601
v 0.043683 0.150508 -0.028794
v 0.048153 0.143491 -0.045601
v 0.043683 0.143491 -0.062407
v 0.043683 0.150508 -0.062407
v 0.048153 0.150508 -0.045601
v 0.043683 0.143491 -0.062407
v 0.031472 0.143491 -0.074710
v 0.031472 0.150508 -0.074710
v 0.043683 0.150508 -0.062407
v 0.031472 0.143491 -0.074710
v 0.014791 0.143491 -0.079214
v 0.014791 0.150508 -0.079214
v 0.031472 0.150508 -0.074710
v 0.014791 0.143491 -0.079214
v -0.001890 0.143491 -0.074711
v -0.001890 0.150508 -0.074710
v 0.014791 0.150508 -0.079214
v -0.001890 0.143491 -0.074711
v -0.014101 0.143491 -0.062407
v -0.014101 0.150508 -0.062407
v -0.001890 0.150508 -0.074710
v -0.014101 0.143491 -0.062407
v -0.018571 0.143491 -0.045601
v -0.018571 0.150508 -0.045601
v -0.014101 0.150508 -0.062407
v -0.018571 0.150508 -0.045601
v -0.014101 0.150508 -0.028794
v -0.001890 0.150508 -0.016491
v 0.014791 0.150508 -0.011987
v 0.031472 0.150508 -0.016491
v 0.043683 0.150508 -0.028794
v 0.048153 0.150508 -0.045601
v 0.043683 0.150508 -0.062407
v 0.031472 0.150508 -0.074710
v 0.014791 0.150508 -0.079214
v -0.001890 0.150508 -0.074710
v -0.014101 0.150508 -0.062407
v -0.014101 0.143491 -0.062407
v -0.001890 0.143491 -0.074711
v 0.014791 0.143491 -0.079214
v 0.031472 0.143491 -0.074710
v 0.043683 0.143491 -0.062407
v 0.048153 0.143491 -0.045601
v 0.043683 0.143491 -0.028794
v 0.031472 0.143491 -0.016491
v 0.014791 0.143491 -0.011987
v -0.001890 0.143491 -0.016491
v -0.014101 0.143491 -0.028794
v -0.018571 0.143491 -0.045601
v -0.018571 0.197523 -0.045601
v -0.014101 0.197523 -0.028794
v -0.014101 0.204540 -0.028794
v -0.018571 0.204540 -0.045601
v -0.014101 0.197523 -0.028794
v -0.001890 0.197523 -0.016491
v -0.001890 0.204540 -0.016491
v -0.014101 0.204540 -0.028794
v -0.001890 0.197523 -0.016491
v 0.014791 0.197523 -0.011987
v 0.014791 0.204540 -0.011987
v -0.001890 0.204540 -0.016491
v 0.014791 0.197523 -0.011987
v 0.031472 0.197523 -0.016491
v 0.031472 0.204540 -0.016491
v 0.014791 0.204540 -0.011987
v 0.031472 0.197523 -0.016491
v 0.043683 0.197523 -0.028794
v 0.043683 0.204540 -0.028794
v 0.031472 0.204540 -0.016491
v 0.043683 0.197523 -0.028794
v 0.048153 0.197523 -0.045601
v 0.048153 0.204540 -0.045601
v 0.043683 0.204540 -0.028794
v 0.048153 0.197523 -0.045601
v 0.043683 0.197523 -0.062407
v 0.043683 0.204540 -0.062407
v 0.048153 0.204540 -0.045601
v 0.043683 0.197523 -0.062407
v 0.031472 0.197523 -0.074710
v 0.031472 0.204540 -0.074710
v 0.043683 0.204540 -0.062407
v 0.031472 0.197523 -0.074710
v 0.014791 0.197523 -0.079214
v 0.014791 0.204540 -0.079214
v 0.031472 0.204540 -0.074710
v 0.014791 0.197523 -0.079214
v -0.001890 0.197523 -0.074711
v -0.001890 0.204540 -0.074710
v 0.014791 0.204540 -0.079214
v -0.001890 0.197523 -0.074711
v -0.014101 0.197523 -0.062407
v -0.014101 0.204540 -0.062407
v -0.001890 0.204540 -0.074710
v -0.014101 0.197523 -0.062407
v -0.018571 0.197523 -0.045601
v -0.018571 0.204540 -0.045601
v -0.014101 0.204540 -0.062407
v -0.018571 0.204540 -0.045601
v -0.014101 0.204540 -0.028794
v -0.001890 0.204540 -0.016491
v 0.014791 0.204540 -0.011987
v 0.031472 0.204540 -0.016491
v 0.043683 0.204540 -0.028794
v 0.048153 0.204540 -0.045601
v 0.043683 0.204540 -0.062407
v 0.031472 0.204540 -0.074710
v 0.014791 0.204540 -0.079214
v -0.001890 0.204540 -0.074710
v -0.014101 0.204540 -0.062407
v -0.014101 0.197523 -0.062407
v -0.001890 0.197523 -0.074711
v 0.014791 0.197523 -0.079214
v 0.031472 0.197523 -0.074710
v 0.043683 0.197523 -0.062407
v 0.048153 0.197523 -0.045601
v 0.043683 0.197523 -0.028794
v 0.031472 0.197523 -0.016491
v 0.014791 0.197523 -0.011987
v -0.001890 0.197523 -0.016491
v -0.014101 0.197523 -0.028794
v -0.018571 0.197523 -0.045601
v -0.017440 0.285963 -0.045601
v -0.013122 0.285963 -0.029364
v -0.013122 0.286641 -0.029364
v -0.017440 0.286641 -0.045601
v -0.013122 0.285963 -0.029364
v -0.001325 0.285963 -0.017478
v -0.001325 0.286641 -0.017478
v -0.013122 0.286641 -0.029364
v -0.001325 0.285963 -0.017478
v 0.014791 0.285963 -0.013127
v 0.014791 0.286641 -0.013127
v -0.001325 0.286641 -0.017478
v 0.014791 0.285963 -0.013127
v 0.030907 0.285963 -0.017478
v 0.030907 0.286641 -0.017478
v 0.014791 0.286641 -0.013127
v 0.030907 0.285963 -0.017478
v 0.042704 0.285963 -0.029364
v 0.042704 0.286641 -0.029364
v 0.030907 0.286641 -0.017478
v 0.042704 0.285963 -0.029364
v 0.047022 0.285963 -0.045601
v 0.047022 0.286641 -0.045601
v 0.042704 0.286641 -0.029364
v 0.047022 0.285963 -0.045601
v 0.042704 0.285963 -0.061837
v 0.042704 0.286641 -0.061837
v 0.047022 0.286641 -0.045601
v 0.042704 0.285963 -0.061837
v 0.030907 0.285963 -0.073724
v 0.030907 0.286641 -0.073724
v 0.042704 0.286641 -0.061837
v 0.030907 0.285963 -0.073724
v 0.014791 0.285963 -0.078074
v 0.014791 0.286641 -0.078074
v 0.030907 0.286641 -0.073724
v 0.014791 0.285963 -0.078074
v -0.001325 0.285963 -0.073724
v -0.001325 0.286641 -0.073724
v 0.014791 0.286641 -0.078074
v -0.001325 0.285963 -0.073724
v -0.013122 0.285963 -0.061837
v -0.013122 0.286641 -0.061837
v -0.001325 0.286641 -0.073724
v -0.013122 0.285963 -0.061837
v -0.017440 0.285963 -0.045601
v -0.017440 0.286641 -0.045601
v -0.013122 0.286641 -0.061837
v -0.017440 0.286641 -0.045601
v -0.013122 0.286641 -0.029364
v -0.001325 0.286641 -0.017478
v 0.014791 0.286641 -0.013127
v 0.030907 0.286641 -0.017478
v 0.042704 0.286641 -0.029364
v 0.047022 0.286641 -0.045601
v 0.042704 0.286641 -0.061837
v 0.030907 0.286641 -0.073724
v 0.014791 0.286641 -0.078074
v -0.001325 0.286641 -0.073724
v -0.013122 0.286641 -0.061837
v -0.013122 0.285963 -0.061837
v -0.001325 0.285963 -0.073724
v 0.014791 0.285963 -0.078074
v 0.030907 0.285963 -0.073724
v 0.042704 0.285963 -0.061837
v 0.047022 0.285963 -0.045601
v 0.042704 0.285963 -0.029364
v 0.030907 0.285963 -0.017478
v 0.014791 0.285963 -0.013127
v -0.001325 0.285963 -0.017478
v -0.013122 0.285963 -0.029364
v -0.017440 0.285963 -0.045601
v -0.017440 0.221405 -0.045601
v -0.013122 0.221405 -0.029364
v -0.013122 0.222083 -0.029364
v -0.017440 0.222083 -0.045601
v -0.013122 0.221405 -0.029364
v -0.001325 0.221405 -0.017478
v -0.001325 0.222083 -0.017478
v -0.013122 0.222083 -0.029364
v -0.001325 0.221405 -0.017478
v 0.014791 0.221405 -0.013127
v 0.014791 0.222083 -0.013127
v -0.001325 0.222083 -0.017478
v 0.014791 0.221405 -0.013127
v 0.030907 0.221405 -0.017478
v 0.030907 0.222083 -0.017478
v 0.014791 0.222083 -0.013127
v 0.030907 0.221405 -0.017478
v 0.042704 0.221405 -0.029364
v 0.042704 0.222083 -0.029364
v 0.030907 0.222083 -0.017478
v 0.042704 0.221405 -0.029364
v 0.047022 0.221405 -0.045601
v 0.047022 0.222083 -0.045601
v 0.042704 0.222083 -0.029364
v 0.047022 0.221405 -0.045601
v 0.042704 0.221405 -0.061837
v 0.042704 0.222083 -0.061837
v 0.047022 0.222083 -0.045601
v 0.042704 0.221405 -0.061837
v 0.030907 0.221405 -0.073724
v 0.030907 0.222083 -0.073724
v 0.042704 0.222083 -0.061837
v 0.030907 0.221405 -0.073724
v 0.014791 0.221405 -0.078074
v 0.014791 0.222083 -0.078074
v 0.030907 0.222083 -0.073724
v 0.014791 0.221405 -0.078074
v -0.001325 0.221405 -0.073724
v -0.001325 0.222083 -0.073724
v 0.014791 0.222083 -0.078074
v -0.001325 0.221405 -0.073724
v -0.013122 0.221405 -0.061837
v -0.013122 0.222083 -0.061837
v -0.001325 0.222083 -0.073724
v -0.013122 0.221405 -0.061837
v -0.017440 0.221405 -0.045601
v -0.017440 0.222083 -0.045601
v -0.013122 0.222083 -0.061837
v -0.017440 0.222083 -0.045601
v -0.013122 0.222083 -0.029364
v -0.001325 0.222083 -0.017478
v 0.014791 0.222083 -0.013127
v 0.030907 0.222083 -0.017478
v 0.042704 0.222083 -0.029364
v 0.047022 0.222083 -0.045601
v 0.042704 0.222083 -0.061837
v 0.030907 0.222083 -0.073724
v 0.014791 0.222083 -0.078074
v -0.001325 0.222083 -0.073724
v -0.013122 0.222083 -0.061837
v -0.013122 0.221405 -0.061837
v -0.001325 0.221405 -0.073724
v 0.014791 0.221405 -0.078074
v 0.030907 0.221405 -0.073724
v 0.042704 0.221405 -0.061837
v 0.047022 0.221405 -0.045601
v 0.042704 0.221405 -0.029364
v 0.030907 0.221405 -0.017478
v 0.014791 0.221405 -0.013127
v -0.001325 0.221405 -0.017478
v -0.013122 0.221405 -0.029364
v -0.017440 0.221405 -0.045601
v -0.017440 0.096500 -0.045601
v -0.013122 0.096500 -0.029364
v -0.013122 0.097178 -0.029364
v -0.017440 0.097178 -0.045601
v -0.013122 0.096500 -0.029364
v -0.001325 0.096500 -0.017478
v -0.001325 0.097178 -0.017478
v -0.013122 0.097178 -0.029364
v -0.001325 0.096500 -0.017478
v 0.014791 0.096500 -0.013127
v 0.014791 0.097178 -0.013127
v -0.001325 0.097178 -0.017478
v 0.014791 0.096500 -0.013127
v 0.030907 0.096500 -0.017478
v 0.030907 0.097178 -0.017478
v 0.014791 0.097178 -0.013127
v 0.030907 0.096500 -0.017478
v 0.042704 0.096500 -0.029364
v 0.042704 0.097178 -0.029364
v 0.030907 0.097178 -0.017478
v 0.042704 0.096500 -0.029364
v 0.047022 0.096500 -0.045601
v 0.047022 0.097178 -0.045601
v 0.042704 0.097178 -0.029364
v 0.047022 0.096500 -0.045601
v 0.042704 0.096500 -0.061837
v 0.042704 0.097178 -0.061837
v 0.047022 0.097178 -0.045601
v 0.042704 0.096500 -0.061837
v 0.030907 0.096500 -0.073724
v 0.030907 0.097178 -0.073724
v 0.042704 0.097178 -0.061837
v 0.030907 0.096500 -0.073724
v 0.014791 0.096500 -0.078074
v 0.014791 0.097178 -0.078074
v 0.030907 0.097178 -0.073724
v 0.014791 0.096500 -0.078074
v -0.001325 0.096500 -0.073724
v -0.001325 0.097178 -0.073724
v 0.014791 0.097178 -0.078074
v -0.001325 0.096500 -0.073724
v -0.013122 0.096500 -0.061837
v -0.013122 0.097178 -0.061837
v -0.001325 0.097178 -0.073724
v -0.013122 0.096500 -0.061837
v -0.017440 0.096500 -0.045601
v -0.017440 0.097178 -0.045601
v -0.013122 0.097178 -0.061837
v -0.017440 0.097178 -0.045601
v -0.013122 0.097178 -0.029364
v -0.001325 0.097178 -0.017478
v 0.014791 0.097178 -0.013127
v 0.030907 0.097178 -0.017478
v 0.042704 0.097178 -0.029364
v 0.047022 0.097178 -0.045601
v 0.042704 0.097178 -0.061837
v 0.030907 0.097178 -0.073724
v 0.014791 0.097178 -0.078074
v -0.001325 0.097178 -0.073724
v -0.013122 0.097178 -0.061837
v -0.013122 0.096500 -0.061837
v -0.001325 0.096500 -0.073724
v 0.014791 0.096500 -0.078074
v 0.030907 0.096500 -0.073724
v 0.042704 0.096500 -0.061837
v 0.047022 0.096500 -0.045601
v 0.042704 0.096500 -0.029364
v 0.030907 0.096500 -0.017478
v 0.014791 0.096500 -0.013127
v -0.001325 0.096500 -0.017478
v -0.013122 0.096500 -0.029364
v -0.017440 0.096500 -0.045601
v -0.017440 0.005276 -0.045601
v -0.013122 0.005276 -0.029364
v -0.013122 0.005954 -0.029364
v -0.017440 0.005954 -0.045601
v -0.013122 0.005276 -0.029364
v -0.001325 0.005276 -0.017478
v -0.001325 0.005954 -0.017478
v -0.013122 0.005954 -0.029364
v -0.001325 0.005276 -0.017478
v 0.014791 0.005276 -0.013127
v 0.014791 0.005954 -0.013127
v -0.001325 0.005954 -0.017478
v 0.014791 0.005276 -0.013127
v 0.030907 0.005276 -0.017478
v 0.030907 0.005954 -0.017478
v 0.014791 0.005954 -0.013127
v 0.030907 0.005276 -0.017478
v 0.042704 0.005276 -0.029364
v 0.042704 0.005954 -0.029364
v 0.030907 0.005954 -0.017478
v 0.042704 0.005276 -0.029364
v 0.047022 0.005276 -0.045601
v 0.047022 0.005954 -0.045601
v 0.042704 0.005954 -0.029364
v 0.047022 0.005276 -0.045601
v 0.042704 0.005276 -0.061837
v 0.042704 0.005954 -0.061837
v 0.047022 0.005954 -0.045601
v 0.042704 0.005276 -0.061837
v 0.030907 0.005276 -0.073724
v 0.030907 0.005954 -0.073724
v 0.042704 0.005954 -0.061837
v 0.030907 0.005276 -0.073724
v 0.014791 0.005276 -0.078074
v 0.014791 0.005954 -0.078074
v 0.030907 0.005954 -0.073724
v 0.014791 0.005276 -0.078074
v -0.001325 0.005276 -0.073724
v -0.001324 0.005954 -0.073724
v 0.014791 0.005954 -0.078074
v -0.001325 0.005276 -0.073724
v -0.013122 0.005276 -0.061837
v -0.013122 0.005954 -0.061837
v -0.001324 0.005954 -0.073724
v -0.013122 0.005276 -0.061837
v -0.017440 0.005276 -0.045601
v -0.017440 0.005954 -0.045601
v -0.013122 0.005954 -0.061837
v -0.017440 0.005954 -0.045601
v -0.013122 0.005954 -0.029364
v -0.001325 0.005954 -0.017478
v 0.014791 0.005954 -0.013127
v 0.030907 0.005954 -0.017478
v 0.042704 0.005954 -0.029364
v 0.047022 0.005954 -0.045601
v 0.042704 0.005954 -0.061837
v 0.030907 0.005954 -0.073724
v 0.014791 0.005954 -0.078074
v -0.001324 0.005954 -0.073724
v -0.013122 0.005954 -0.061837
v -0.013122 0.005276 -0.061837
v -0.001325 0.005276 -0.073724
v 0.014791 0.005276 -0.078074
v 0.030907 0.005276 -0.073724
v 0.042704 0.005276 -0.061837
v 0.047022 0.005276 -0.045601
v 0.042704 0.005276 -0.029364
v 0.030907 0.005276 -0.017478
v 0.014791 0.005276 -0.013127
v -0.001325 0.005276 -0.017478
v -0.013122 0.005276 -0.029364
v -0.017440 0.005276 -0.045601
v 0.044797 0.267800 -0.038980
v 0.043781 0.267605 -0.035222
v 0.044758 0.267636 -0.034950
v 0.045775 0.267831 -0.038707
v 0.043781 0.267605 -0.035222
v 0.043033 0.266239 -0.032096
v 0.044011 0.266270 -0.031823
v 0.044758 0.267636 -0.034950
v 0.043033 0.266239 -0.032096
v 0.042754 0.264067 -0.030438
v 0.043732 0.264098 -0.030165
v 0.044011 0.266270 -0.031823
v 0.042754 0.264067 -0.030438
v 0.043019 0.261672 -0.030692
v 0.043997 0.261702 -0.030420
v 0.043732 0.264098 -0.030165
v 0.043019 0.261672 -0.030692
v 0.043757 0.259695 -0.032792
v 0.044735 0.259725 -0.032519
v 0.043997 0.261702 -0.030420
v 0.043757 0.259695 -0.032792
v 0.044769 0.258666 -0.036173
v 0.045747 0.258696 -0.035900
v 0.044735 0.259725 -0.032519
v 0.044769 0.258666 -0.036173
v 0.045786 0.258860 -0.039930
v 0.046764 0.258891 -0.039657
v 0.045747 0.258696 -0.035900
v 0.045786 0.258860 -0.039930
v 0.046533 0.260227 -0.043057
v 0.047511 0.260257 -0.042784
v 0.046764 0.258891 -0.039657
v 0.046533 0.260227 -0.043057
v 0.046812 0.262399 -0.044715
v 0.047790 0.262429 -0.044442
v 0.047511 0.260257 -0.042784
v 0.046812 0.262399 -0.044715
v 0.046547 0.264794 -0.044460
v 0.047525 0.264825 -0.044187
v 0.047790 0.262429 -0.044442
v 0.046547 0.264794 -0.044460
v 0.045809 0.266771 -0.042361
v 0.046787 0.266802 -0.042088
v 0.047525 0.264825 -0.044187
v 0.045809 0.266771 -0.042361
v 0.044797 0.267800 -0.038980
v 0.045775 0.267831 -0.038707
v 0.046787 0.266802 -0.042088
v 0.045775 0.267831 -0.038707
v 0.044758 0.267636 -0.034950
v 0.044011 0.266270 -0.031823
v 0.043732 0.264098 -0.030165
v 0.043997 0.261702 -0.030420
v 0.044735 0.259725 -0.032519
v 0.045747 0.258696 -0.035900
v 0.046764 0.258891 -0.039657
v 0.047511 0.260257 -0.042784
v 0.047790 0.262429 -0.044442
v 0.047525 0.264825 -0.044187
v 0.046787 0.266802 -0.042088
v 0.045809 0.266771 -0.042361
v 0.046547 0.264794 -0.044460
v 0.046812 0.262399 -0.044715
v 0.046533 0.260227 -0.043057
v 0.045786 0.258860 -0.039930
v 0.044769 0.258666 -0.036173
v 0.043757 0.259695 -0.032792
v 0.043019 0.261672 -0.030692
v 0.042754 0.264067 -0.030438
v 0.043033 0.266239 -0.032096
v 0.043781 0.267605 -0.035222
v 0.044797 0.267800 -0.038980
v 0.044715 0.257043 -0.038679
v 0.043679 0.256832 -0.034930
v 0.044657 0.256838 -0.034655
v 0.045693 0.257049 -0.038404
v 0.043679 0.256832 -0.034930
v 0.042846 0.255450 -0.031843
v 0.043825 0.255456 -0.031568
v 0.044657 0.256838 -0.034655
v 0.042846 0.255450 -0.031843
v 0.042441 0.253268 -0.030246
v 0.043419 0.253275 -0.029970
v 0.043825 0.255456 -0.031568
v 0.042441 0.253268 -0.030246
v 0.042570 0.250872 -0.030566
v 0.043549 0.250878 -0.030290
v 0.043419 0.253275 -0.029970
v 0.042570 0.250872 -0.030566
v 0.043201 0.248902 -0.032718
v 0.044179 0.248908 -0.032442
v 0.043549 0.250878 -0.030290
v 0.043201 0.248902 -0.032718
v 0.044163 0.247887 -0.036125
v 0.045141 0.247893 -0.035850
v 0.044179 0.248908 -0.032442
v 0.044163 0.247887 -0.036125
v 0.045199 0.248098 -0.039874
v 0.046177 0.248105 -0.039599
v 0.045141 0.247893 -0.035850
v 0.045199 0.248098 -0.039874
v 0.046031 0.249480 -0.042961
v 0.047010 0.249486 -0.042686
v 0.046177 0.248105 -0.039599
v 0.046031 0.249480 -0.042961
v 0.046437 0.251661 -0.044559
v 0.047415 0.251668 -0.044283
v 0.047010 0.249486 -0.042686
v 0.046437 0.251661 -0.044559
v 0.046307 0.254058 -0.044239
v 0.047286 0.254065 -0.043963
v 0.047415 0.251668 -0.044283
v 0.046307 0.254058 -0.044239
v 0.045677 0.256028 -0.042087
v 0.046655 0.256034 -0.041811
v 0.047286 0.254065 -0.043963
v 0.045677 0.256028 -0.042087
v 0.044715 0.257043 -0.038679
v 0.045693 0.257049 -0.038404
v 0.046655 0.256034 -0.041811
v 0.045693 0.257049 -0.038404
v 0.044657 0.256838 -0.034655
v 0.043825 0.255456 -0.031568
v 0.043419 0.253275 -0.029970
v 0.043549 0.250878 -0.030290
v 0.044179 0.248908 -0.032442
v 0.045141 0.247893 -0.035850
v 0.046177 0.248105 -0.039599
v 0.047010 0.249486 -0.042686
v 0.047415 0.251668 -0.044283
v 0.047286 0.254065 -0.043963
v 0.046655 0.256034 -0.041811
v 0.045677 0.256028 -0.042087
v 0.046307 0.254058 -0.044239
v 0.046437 0.251661 -0.044559
v 0.046031 0.249480 -0.042961
v 0.045199 0.248098 -0.039874
v 0.044163 0.247887 -0.036125
v 0.043201 0.248902 -0.032718
v 0.042570 0.250872 -0.030566
v 0.042441 0.253268 -0.030246
v 0.042846 0.255450 -0.031843
v 0.043679 0.256832 -0.034930
v 0.044715 0.257043 -0.038679
vn -0.9664 -0.0000 0.2570
vn -0.7098 -0.0000 0.7045
vn -0.2606 -0.0000 0.9654
vn 0.2606 -0.0000 0.9654
vn 0.7098 -0.0000 0.7045
vn 0.9664 -0.0000 0.2570
vn 0.9664 -0.0000 -0.2570
vn 0.7098 -0.0000 -0.7044
vn 0.7098 -0.0000 -0.7045
vn 0.2606 -0.0000 -0.9654
vn -0.2606 -0.0000 -0.9654
vn -0.7098 -0.0000 -0.7045
vn -0.9664 -0.0000 -0.2570
vn -0.6599 0.3681 -0.6550
vn -0.2422 0.3691 -0.8973
vn 0.2422 0.3691 -0.8973
vn 0.6599 0.3681 -0.6550
vn 0.8990 0.3670 -0.2391
vn 0.8990 0.3670 0.2391
vn 0.6599 0.3681 0.6550
vn 0.2422 0.3691 0.8973
vn -0.2422 0.3691 0.8973
vn -0.6599 0.3681 0.6550
vn -0.8990 0.3670 0.2391
vn -0.8990 0.3670 -0.2391
vn -0.5974 0.5399 -0.5930
vn -0.2192 0.5412 -0.8119
vn 0.2192 0.5412 -0.8119
vn 0.5974 0.5399 -0.5930
vn 0.8142 0.5387 -0.2165
vn 0.8142 0.5387 0.2165
vn 0.5974 0.5399 0.5929
vn 0.2192 0.5412 0.8119
vn -0.2192 0.5412 0.8119
vn -0.5974 0.5399 0.5929
vn -0.8142 0.5387 0.2165
vn -0.8142 0.5387 -0.2165
vn -0.4515 0.7716 -0.4481
vn -0.1655 0.7726 -0.6129
vn 0.1655 0.7726 -0.6129
vn 0.4515 0.7716 -0.4481
vn 0.6159 0.7706 -0.1638
vn 0.6159 0.7706 0.1638
vn 0.4515 0.7716 0.4481
vn 0.1655 0.7726 0.6129
vn -0.1655 0.7726 0.6129
vn -0.4515 0.7716 0.4481
vn -0.6159 0.7706 0.1638
vn -0.6159 0.7706 -0.1638
vn -0.4322 0.7932 -0.4290
vn -0.1584 0.7942 -0.5867
vn 0.1584 0.7942 -0.5867
vn 0.4322 0.7932 -0.4290
vn 0.5897 0.7923 -0.1568
vn 0.5897 0.7923 0.1568
vn 0.4322 0.7932 0.4290
vn 0.1584 0.7942 0.5867
vn -0.1584 0.7942 0.5867
vn -0.4322 0.7932 0.4290
vn -0.5897 0.7923 0.1568
vn -0.5897 0.7923 -0.1568
vn -0.0000 1.0000 -0.0000
vn -0.0000 -1.0000 -0.0000
vn -1.0000 -0.0000 -0.0000
vn 1.0000 -0.0000 -0.0000
vn -0.0000 0.9068 0.4215
vn -0.0000 0.2913 0.9566
vn -0.0000 -0.0000 -1.0000
vn -0.9896 -0.1227 -0.0756
vn 0.9896 0.1227 0.0756
vn -0.0000 -0.0000 1.0000
vn 0.4241 0.9056 -0.0000
vn 0.9572 0.2893 -0.0000
vn -0.0767 -0.1236 0.9894
vn 0.0767 0.1236 -0.9894
vn -0.0000 0.9068 -0.4215
vn -0.0000 0.2913 -0.9566
vn 0.9896 -0.1227 0.0756
vn -0.9896 0.1227 -0.0756
vn -0.4241 0.9056 -0.0000
vn -0.9572 0.2893 -0.0000
vn 0.0767 -0.1236 -0.9894
vn -0.0767 0.1236 0.9894
vn -0.7098 -0.0000 0.7044
vn -0.7097 -0.0000 0.7045
vn 0.7097 -0.0000 0.7045
vn 0.7098 -0.0000 0.7044
vn 0.7097 -0.0000 -0.7045
vn -0.7098 -0.0000 -0.7044
vn -0.7097 -0.0000 -0.7045
vn -0.0425 0.9983 0.0403
vn -0.1321 0.9195 0.3703
vn -0.2307 0.6090 0.7589
vn -0.2625 -0.1307 0.9560
vn -0.1571 -0.7459 0.6473
vn -0.1572 -0.7459 0.6473
vn -0.0474 -0.9595 0.2778
vn 0.0425 -0.9983 -0.0403
vn 0.1320 -0.9195 -0.3703
vn 0.1321 -0.9195 -0.3703
vn 0.2307 -0.6089 -0.7589
vn 0.2625 0.1307 -0.9560
vn 0.1571 0.7459 -0.6473
vn 0.0474 0.9595 -0.2778
vn 0.9613 0.0783 0.2641
vn -0.9613 -0.0783 -0.2641
vn -0.0208 0.9985 0.0506
vn -0.0207 0.9985 0.0506
vn -0.1131 0.9179 0.3803
vn -0.1130 0.9179 0.3803
vn -0.2199 0.6026 0.7671
vn -0.2674 -0.1418 0.9531
vn -0.1742 -0.7512 0.6366
vn -0.0688 -0.9612 0.2670
vn 0.0208 -0.9985 -0.0506
vn 0.1131 -0.9179 -0.3803
vn 0.2199 -0.6026 -0.7671
vn 0.2673 0.1418 -0.9531
vn 0.1742 0.7512 -0.6366
vn 0.0688 0.9612 -0.2670
vn 0.0689 0.9612 -0.2669
vn 0.9635 0.0165 0.2672
vn -0.9635 -0.0165 -0.2672
s 0
usemtl mat15
f 2//1 4//1 1//1
f 4//1 2//1 3//1
f 6//2 8//2 5//2
f 8//2 6//2 7//2
f 11//3 12//3 9//3
f 9//3 10//3 11//3
f 15//4 16//4 13//4
f 13//4 14//4 15//4
f 19//5 20//5 17//5
f 17//5 18//5 19//5
f 23//6 24//6 21//6
f 21//6 22//6 23//6
f 27//7 28//7 25//7
f 25//7 26//7 27//7
f 31//8 32//8 29//8
f 29//9 30//9 31//9
f 34//10 36//10 33//10
f 36//10 34//10 35//10
f 38//11 40//11 37//11
f 40//11 38//11 39//11
f 42//12 44//12 41//12
f 44//12 42//12 43//12
f 46//13 48//13 45//13
f 48//13 46//13 47//13
f 50//14 52//14 49//14
f 52//14 50//14 51//14
f 54//1 56//1 53//1
f 56//1 54//1 55//1
f 58//15 60//15 57//15
f 60//15 58//15 59//15
f 62//16 64//16 61//16
f 64//16 62//16 63//16
f 67//17 68//17 65//17
f 65//17 66//17 67//17
f 71//18 72//18 69//18
f 69//18 70//18 71//18
f 75//19 76//19 73//19
f 73//19 74//19 75//19
f 79//20 80//20 77//20
f 77//20 78//20 79//20
f 83//21 84//21 81//21
f 81//21 82//21 83//21
f 87//22 88//22 85//22
f 85//22 86//22 87//22
f 91//23 92//23 89//23
f 89//23 90//23 91//23
f 94//24 96//24 93//24
f 96//24 94//24 95//24
f 98//25 100//25 97//25
f 100//25 98//25 99//25
f 102//26 104//26 101//26
f 104//26 102//26 103//26
f 106//27 108//27 105//27
f 108//27 106//27 107//27
f 110//28 112//28 109//28
f 112//28 110//28 111//28
f 115//29 116//29 113//29
f 113//29 114//29 115//29
f 119//30 120//30 117//30
f 117//30 118//30 119//30
f 123//31 124//31 121//31
f 121//31 122//31 123//31
f 127//32 128//32 125//32
f 125//32 126//32 127//32
f 131//33 132//33 129//33
f 129//33 130//33 131//33
f 135//34 136//34 133//34
f 133//34 134//34 135//34
f 139//35 140//35 137//35
f 137//35 138//35 139//35
f 142//36 144//36 141//36
f 144//36 142//36 143//36
f 146//37 148//37 145//37
f 148//37 146//37 147//37
f 150//38 152//38 149//38
f 152//38 150//38 151//38
f 154//39 156//39 153//39
f 156//39 154//39 155//39
f 158//40 160//40 157//40
f 160//40 158//40 159//40
f 163//41 164//41 161//41
f 161//41 162//41 163//41
f 167//42 168//42 165//42
f 165//42 166//42 167//42
f 171//43 172//43 169//43
f 169//43 170//43 171//43
f 175//44 176//44 173//44
f 173//44 174//44 175//44
f 179//45 180//45 177//45
f 177//45 178//45 179//45
f 183//46 184//46 181//46
f 181//46 182//46 183//46
f 187//47 188//47 185//47
f 185//47 186//47 187//47
f 190//48 192//48 189//48
f 192//48 190//48 191//48
f 194//49 196//49 193//49
f 196//49 194//49 195//49
f 198//50 200//50 197//50
f 200//50 198//50 199//50
f 202//51 204//51 201//51
f 204//51 202//51 203//51
f 206//52 208//52 205//52
f 208//52 206//52 207//52
f 211//53 212//53 209//53
f 209//53 210//53 211//53
f 215//54 216//54 213//54
f 213//54 214//54 215//54
f 219//55 220//55 217//55
f 217//55 218//55 219//55
f 223//56 224//56 221//56
f 221//56 222//56 223//56
f 227//57 228//57 225//57
f 225//57 226//57 227//57
f 231//58 232//58 229//58
f 229//58 230//58 231//58
f 235//59 236//59 233//59
f 233//59 234//59 235//59
f 238//60 240//60 237//60
f 240//60 238//60 239//60
f 242//61 244//61 241//61
f 244//61 242//61 243//61
f 246//62 256//62 245//62
f 256//62 254//62 255//62
f 254//62 252//62 253//62
f 252//62 250//62 251//62
f 250//62 248//62 249//62
f 248//62 246//62 247//62
f 246//62 254//62 256//62
f 254//62 250//62 252//62
f 250//62 246//62 248//62
f 246//62 250//62 254//62
f 258//2 260//2 257//2
f 260//2 258//2 259//2
f 263//3 264//3 261//3
f 261//3 262//3 263//3
f 267//4 268//4 265//4
f 265//4 266//4 267//4
f 271//5 272//5 269//5
f 269//5 270//5 271//5
f 275//6 276//6 273//6
f 273//6 274//6 275//6
f 279//7 280//7 277//7
f 277//7 278//7 279//7
f 283//9 284//9 281//9
f 281//9 282//9 283//9
f 286//10 288//10 285//10
f 288//10 286//10 287//10
f 290//11 292//11 289//11
f 292//11 290//11 291//11
f 294//12 296//12 293//12
f 296//12 294//12 295//12
f 298//13 300//13 297//13
f 300//13 298//13 299//13
f 303//63 304//63 301//63
f 301//63 302//63 303//63
f 307//63 308//63 305//63
f 305//63 306//63 307//63
f 311//63 312//63 309//63
f 309//63 310//63 311//63
f 315//63 316//63 313//63
f 313//63 314//63 315//63
f 319//63 320//63 317//63
f 317//63 318//63 319//63
f 323//63 324//63 321//63
f 321//63 322//63 323//63
f 327//63 328//63 325//63
f 325//63 326//63 327//63
f 331//63 332//63 329//63
f 329//63 330//63 331//63
f 335//63 336//63 333//63
f 333//63 334//63 335//63
f 339//63 340//63 337//63
f 337//63 338//63 339//63
f 343//63 344//63 341//63
f 341//63 342//63 343//63
f 347//63 348//63 345//63
f 345//63 346//63 347//63
f 351//7 352//7 349//7
f 349//7 350//7 351//7
f 355//9 356//9 353//9
f 353//9 354//9 355//9
f 358//10 360//10 357//10
f 360//10 358//10 359//10
f 362//11 364//11 361//11
f 364//11 362//11 363//11
f 366//12 368//12 365//12
f 368//12 366//12 367//12
f 370//13 372//13 369//13
f 372//13 370//13 371//13
f 374//1 376//1 373//1
f 376//1 374//1 375//1
f 379//2 380//2 377//2
f 377//2 378//2 379//2
f 383//3 384//3 381//3
f 381//3 382//3 383//3
f 387//4 388//4 385//4
f 385//4 386//4 387//4
f 391//5 392//5 389//5
f 389//5 390//5 391//5
f 395//6 396//6 393//6
f 393//6 394//6 395//6
f 407//63 408//63 397//63
f 397//63 398//63 399//63
f 399//63 400//63 401//63
f 401//63 402//63 403//63
f 403//63 404//63 405//63
f 405//63 406//63 407//63
f 407//63 397//63 399//63
f 399//63 401//63 403//63
f 403//63 405//63 407//63
f 407//63 399//63 403//63
f 409//64 410//64 411//64
f 412//65 413//65 414//65
f 417//63 418//63 415//63
f 415//63 416//63 417//63
f 420//66 422//66 419//66
f 422//66 420//66 421//66
f 425//67 426//67 423//67
f 423//67 424//67 425//67
f 428//68 430//68 427//68
f 430//68 428//68 429//68
f 431//69 432//69 433//69
f 434//70 435//70 436//70
f 437//71 438//71 439//71
f 440//68 441//68 442//68
f 445//63 446//63 443//63
f 443//63 444//63 445//63
f 448//72 450//72 447//72
f 450//72 448//72 449//72
f 453//73 454//73 451//73
f 451//73 452//73 453//73
f 456//64 458//64 455//64
f 458//64 456//64 457//64
f 459//74 460//74 461//74
f 462//75 463//75 464//75
f 465//65 466//65 467//65
f 468//64 469//64 470//64
f 473//63 474//63 471//63
f 471//63 472//63 473//63
f 476//76 478//76 475//76
f 478//76 476//76 477//76
f 480//77 482//77 479//77
f 482//77 480//77 481//77
f 485//71 486//71 483//71
f 483//71 484//71 485//71
f 487//78 488//78 489//78
f 490//79 491//79 492//79
f 493//68 494//68 495//68
f 496//71 497//71 498//71
f 501//63 502//63 499//63
f 499//63 500//63 501//63
f 504//80 506//80 503//80
f 506//80 504//80 505//80
f 508//81 510//81 507//81
f 510//81 508//81 509//81
f 513//65 514//65 511//65
f 511//65 512//65 513//65
f 515//82 516//82 517//82
f 518//83 519//83 520//83
usemtl mat8
f 522//1 524//1 521//1
f 524//1 522//1 523//1
f 526//2 528//2 525//2
f 528//2 526//2 527//2
f 531//3 532//3 529//3
f 529//3 530//3 531//3
f 535//4 536//4 533//4
f 533//4 534//4 535//4
f 539//5 540//5 537//5
f 537//5 538//5 539//5
f 543//6 544//6 541//6
f 541//6 542//6 543//6
f 547//7 548//7 545//7
f 545//7 546//7 547//7
f 550//9 552//9 549//9
f 552//9 550//9 551//9
f 554//10 556//10 553//10
f 556//10 554//10 555//10
f 558//11 560//11 557//11
f 560//11 558//11 559//11
f 562//12 564//12 561//12
f 564//12 562//12 563//12
f 566//13 568//13 565//13
f 568//13 566//13 567//13
f 570//62 580//62 569//62
f 580//62 578//62 579//62
f 578//62 576//62 577//62
f 576//62 574//62 575//62
f 574//62 572//62 573//62
f 572//62 570//62 571//62
f 570//62 578//62 580//62
f 578//62 574//62 576//62
f 574//62 570//62 572//62
f 570//62 574//62 578//62
f 591//63 592//63 581//63
f 581//63 582//63 583//63
f 583//63 584//63 585//63
f 585//63 586//63 587//63
f 587//63 588//63 589//63
f 589//63 590//63 591//63
f 591//63 581//63 583//63
f 583//63 585//63 587//63
f 587//63 589//63 591//63
f 591//63 583//63 587//63
f 594//1 596//1 593//1
f 596//1 594//1 595//1
f 598//2 600//2 597//2
f 600//2 598//2 599//2
f 603//3 604//3 601//3
f 601//3 602//3 603//3
f 607//4 608//4 605//4
f 605//4 606//4 607//4
f 611//5 612//5 609//5
f 609//5 610//5 611//5
f 615//6 616//6 613//6
f 613//6 614//6 615//6
f 619//7 620//7 617//7
f 617//7 618//7 619//7
f 622//9 624//9 621//9
f 624//9 622//9 623//9
f 626//10 628//10 625//10
f 628//10 626//10 627//10
f 630//11 632//11 629//11
f 632//11 630//11 631//11
f 634//12 636//12 633//12
f 636//12 634//12 635//12
f 638//13 640//13 637//13
f 640//13 638//13 639//13
f 642//62 652//62 641//62
f 652//62 650//62 651//62
f 650//62 648//62 649//62
f 648//62 646//62 647//62
f 646//62 644//62 645//62
f 644//62 642//62 643//62
f 642//62 650//62 652//62
f 650//62 646//62 648//62
f 646//62 642//62 644//62
f 642//62 646//62 650//62
f 663//63 664//63 653//63
f 653//63 654//63 655//63
f 655//63 656//63 657//63
f 657//63 658//63 659//63
f 659//63 660//63 661//63
f 661//63 662//63 663//63
f 663//63 653//63 655//63
f 655//63 657//63 659//63
f 659//63 661//63 663//63
f 663//63 655//63 659//63
usemtl mat12
f 666//1 668//1 665//1
f 668//1 666//1 667//1
f 671//2 672//2 669//2
f 669//2 670//2 671//2
f 675//3 676//3 673//3
f 673//3 674//3 675//3
f 679//4 680//4 677//4
f 677//4 678//4 679//4
f 683//5 684//5 681//5
f 681//5 682//5 683//5
f 687//6 688//6 685//6
f 685//6 686//6 687//6
f 691//7 692//7 689//7
f 689//7 690//7 691//7
f 694//9 696//9 693//9
f 696//9 694//9 695//9
f 698//10 700//10 697//10
f 700//10 698//10 699//10
f 702//11 704//11 701//11
f 704//11 702//11 703//11
f 706//12 708//12 705//12
f 708//12 706//12 707//12
f 710//13 712//13 709//13
f 712//13 710//13 711//13
f 714//62 724//62 713//62
f 724//62 722//62 723//62
f 722//62 720//62 721//62
f 720//62 718//62 719//62
f 718//62 716//62 717//62
f 716//62 714//62 715//62
f 714//62 722//62 724//62
f 722//62 718//62 720//62
f 718//62 714//62 716//62
f 714//62 718//62 722//62
f 735//63 736//63 725//63
f 725//63 726//63 727//63
f 727//63 728//63 729//63
f 729//63 730//63 731//63
f 731//63 732//63 733//63
f 733//63 734//63 735//63
f 735//63 725//63 727//63
f 727//63 729//63 731//63
f 731//63 733//63 735//63
f 735//63 727//63 731//63
usemtl mat22
f 738//1 740//1 737//1
f 740//1 738//1 739//1
f 742//84 744//84 741//84
f 744//85 742//85 743//85
f 747//3 748//3 745//3
f 745//3 746//3 747//3
f 751//4 752//4 749//4
f 749//4 750//4 751//4
f 755//86 756//86 753//86
f 753//87 754//87 755//87
f 759//6 760//6 757//6
f 757//6 758//6 759//6
f 763//7 764//7 761//7
f 761//7 762//7 763//7
f 767//88 768//88 765//88
f 765//8 766//8 767//8
f 770//10 772//10 769//10
f 772//10 770//10 771//10
f 774//11 776//11 773//11
f 776//11 774//11 775//11
f 778//89 780//89 777//89
f 780//90 778//90 779//90
f 782//13 784//13 781//13
f 784//13 782//13 783//13
f 786//62 796//62 785//62
f 796//62 794//62 795//62
f 794//62 792//62 793//62
f 792//62 790//62 791//62
f 790//62 788//62 789//62
f 788//62 786//62 787//62
f 786//62 794//62 796//62
f 794//62 790//62 792//62
f 790//62 786//62 788//62
f 786//62 790//62 794//62
f 807//63 808//63 797//63
f 797//63 798//63 799//63
f 799//63 800//63 801//63
f 801//63 802//63 803//63
f 803//63 804//63 805//63
f 805//63 806//63 807//63
f 807//63 797//63 799//63
f 799//63 801//63 803//63
f 803//63 805//63 807//63
f 807//63 799//63 803//63
f 810//1 812//1 809//1
f 812//1 810//1 811//1
f 814//85 816//85 813//85
f 816//84 814//84 815//84
f 819//3 820//3 817//3
f 817//3 818//3 819//3
f 823//4 824//4 821//4
f 821//4 822//4 823//4
f 827//87 828//87 825//87
f 825//86 826//86 827//86
f 831//6 832//6 829//6
f 829//6 830//6 831//6
f 835//7 836//7 833//7
f 833//7 834//7 835//7
f 839//8 840//8 837//8
f 837//88 838//88 839//88
f 842//10 844//10 841//10
f 844//10 842//10 843//10
f 846//11 848//11 845//11
f 848//11 846//11 847//11
f 850//89 852//89 849//89
f 852//89 850//89 851//89
f 854//13 856//13 853//13
f 856//13 854//13 855//13
f 858//62 868//62 857//62
f 868//62 866//62 867//62
f 866//62 864//62 865//62
f 864//62 862//62 863//62
f 862//62 860//62 861//62
f 860//62 858//62 859//62
f 858//62 866//62 868//62
f 866//62 862//62 864//62
f 862//62 858//62 860//62
f 858//62 862//62 866//62
f 879//63 880//63 869//63
f 869//63 870//63 871//63
f 871//63 872//63 873//63
f 873//63 874//63 875//63
f 875//63 876//63 877//63
f 877//63 878//63 879//63
f 879//63 869//63 871//63
f 871//63 873//63 875//63
f 875//63 877//63 879//63
f 879//63 871//63 875//63
f 882//1 884//1 881//1
f 884//1 882//1 883//1
f 886//84 888//84 885//84
f 888//2 886//2 887//2
f 891//3 892//3 889//3
f 889//3 890//3 891//3
f 895//4 896//4 893//4
f 893//4 894//4 895//4
f 899//87 900//87 897//87
f 897//87 898//87 899//87
f 903//6 904//6 901//6
f 901//6 902//6 903//6
f 907//7 908//7 905//7
f 905//7 906//7 907//7
f 911//9 912//9 909//9
f 909//9 910//9 911//9
f 914//10 916//10 913//10
f 916//10 914//10 915//10
f 918//11 920//11 917//11
f 920//11 918//11 919//11
f 922//12 924//12 921//12
f 924//12 922//12 923//12
f 926//13 928//13 925//13
f 928//13 926//13 927//13
f 930//62 940//62 929//62
f 940//62 938//62 939//62
f 938//62 936//62 937//62
f 936//62 934//62 935//62
f 934//62 932//62 933//62
f 932//62 930//62 931//62
f 930//62 938//62 940//62
f 938//62 934//62 936//62
f 934//62 930//62 932//62
f 930//62 934//62 938//62
f 951//63 952//63 941//63
f 941//63 942//63 943//63
f 943//63 944//63 945//63
f 945//63 946//63 947//63
f 947//63 948//63 949//63
f 949//63 950//63 951//63
f 951//63 941//63 943//63
f 943//63 945//63 947//63
f 947//63 949//63 951//63
f 951//63 943//63 947//63
f 954//1 956//1 953//1
f 956//1 954//1 955//1
f 958//84 960//84 957//84
f 960//84 958//84 959//84
f 963//3 964//3 961//3
f 961//3 962//3 963//3
f 967//4 968//4 965//4
f 965//4 966//4 967//4
f 971//86 972//86 969//86
f 969//87 970//87 971//87
f 975//6 976//6 973//6
f 973//6 974//6 975//6
f 979//7 980//7 977//7
f 977//7 978//7 979//7
f 983//88 984//88 981//88
f 981//88 982//88 983//88
f 986//10 988//10 985//10
f 988//10 986//10 987//10
f 990//11 992//11 989//11
f 992//11 990//11 991//11
f 994//12 996//12 993//12
f 996//12 994//12 995//12
f 998//13 1000//13 997//13
f 1000//13 998//13 999//13
f 1002//62 1012//62 1001//62
f 1012//62 1010//62 1011//62
f 1010//62 1008//62 1009//62
f 1008//62 1006//62 1007//62
f 1006//62 1004//62 1005//62
f 1004//62 1002//62 1003//62
f 1002//62 1010//62 1012//62
f 1010//62 1006//62 1008//62
f 1006//62 1002//62 1004//62
f 1002//62 1006//62 1010//62
f 1023//63 1024//63 1013//63
f 1013//63 1014//63 1015//63
f 1015//63 1016//63 1017//63
f 1017//63 1018//63 1019//63
f 1019//63 1020//63 1021//63
f 1021//63 1022//63 1023//63
f 1023//63 1013//63 1015//63
f 1015//63 1017//63 1019//63
f 1019//63 1021//63 1023//63
f 1023//63 1015//63 1019//63
f 1026//91 1028//91 1025//91
f 1028//91 1026//91 1027//91
f 1030//92 1032//92 1029//92
f 1032//92 1030//92 1031//92
f 1035//93 1036//93 1033//93
f 1033//93 1034//93 1035//93
f 1039//94 1040//94 1037//94
f 1037//94 1038//94 1039//94
f 1043//95 1044//95 1041//95
f 1041//96 1042//96 1043//96
f 1047//97 1048//97 1045//97
f 1045//97 1046//97 1047//97
f 1051//98 1052//98 1049//98
f 1049//98 1050//98 1051//98
f 1055//99 1056//99 1053//99
f 1053//100 1054//100 1055//100
f 1058//101 1060//101 1057//101
f 1060//101 1058//101 1059//101
f 1062//102 1064//102 1061//102
f 1064//102 1062//102 1063//102
f 1066//103 1068//103 1065//103
f 1068//103 1066//103 1067//103
f 1070//104 1072//104 1069//104
f 1072//104 1070//104 1071//104
f 1083//105 1084//105 1073//105
f 1073//105 1074//105 1075//105
f 1075//105 1076//105 1077//105
f 1077//105 1078//105 1079//105
f 1079//105 1080//105 1081//105
f 1081//105 1082//105 1083//105
f 1083//105 1073//105 1075//105
f 1075//105 1077//105 1079//105
f 1079//105 1081//105 1083//105
f 1083//105 1075//105 1079//105
f 1086//106 1096//106 1085//106
f 1096//106 1094//106 1095//106
f 1094//106 1092//106 1093//106
f 1092//106 1090//106 1091//106
f 1090//106 1088//106 1089//106
f 1088//106 1086//106 1087//106
f 1086//106 1094//106 1096//106
f 1094//106 1090//106 1092//106
f 1090//106 1086//106 1088//106
f 1086//106 1090//106 1094//106
f 1098//107 1100//107 1097//107
f 1100//108 1098//108 1099//108
f 1102//109 1104//109 1101//109
f 1104//110 1102//110 1103//110
f 1107//111 1108//111 1105//111
f 1105//111 1106//111 1107//111
f 1111//112 1112//112 1109//112
f 1109//112 1110//112 1111//112
f 1115//113 1116//113 1113//113
f 1113//113 1114//113 1115//113
f 1119//114 1120//114 1117//114
f 1117//114 1118//114 1119//114
f 1123//115 1124//115 1121//115
f 1121//115 1122//115 1123//115
f 1127//116 1128//116 1125//116
f 1125//116 1126//116 1127//116
f 1130//117 1132//117 1129//117
f 1132//117 1130//117 1131//117
f 1134//118 1136//118 1133//118
f 1136//118 1134//118 1135//118
f 1138//119 1140//119 1137//119
f 1140//119 1138//119 1139//119
f 1142//120 1144//120 1141//120
f 1144//121 1142//121 1143//121
f 1155//122 1156//122 1145//122
f 1145//122 1146//122 1147//122
f 1147//122 1148//122 1149//122
f 1149//122 1150//122 1151//122
f 1151//122 1152//122 1153//122
f 1153//122 1154//122 1155//122
f 1155//122 1145//122 1147//122
f 1147//122 1149//122 1151//122
f 1151//122 1153//122 1155//122
f 1155//122 1147//122 1151//122
f 1158//123 1168//123 1157//123
f 1168//123 1166//123 1167//123
f 1166//123 1164//123 1165//123
f 1164//123 1162//123 1163//123
f 1162//123 1160//123 1161//123
f 1160//123 1158//123 1159//123
f 1158//123 1166//123 1168//123
f 1166//123 1162//123 1164//123
f 1162//123 1158//123 1160//123
f 1158//123 1162//123 1166//123
