# Blender 5.1.2
# www.blender.org
mtllib Untitled.mtl
o turret_single
v 0.206981 0.062369 0.137915
v 0.190475 0.062369 0.312915
v 0.231956 0.062369 0.077620
v 0.167252 0.062369 0.189692
v 0.115475 0.062369 0.229421
v 0.290475 0.062369 0.212915
v 0.055180 0.062369 0.254396
v -0.009525 0.062369 0.262915
v -0.209525 0.062369 0.312915
v -0.074230 0.062369 0.254396
v -0.134525 0.062369 0.229421
v -0.186302 0.062369 0.189692
v -0.226031 0.062369 0.137915
v -0.251006 0.062369 0.077620
v -0.309525 0.062369 0.212915
v -0.259525 0.062369 0.012915
v -0.251006 0.062369 -0.051790
v -0.309525 0.062369 -0.187085
v -0.226031 0.062369 -0.112085
v -0.209525 0.062369 -0.287085
v -0.186302 0.062369 -0.163862
v -0.134525 0.062369 -0.203591
v -0.074230 0.062369 -0.228566
v -0.009525 0.062369 -0.237085
v 0.055180 0.062369 -0.228566
v 0.190475 0.062369 -0.287085
v 0.115475 0.062369 -0.203591
v 0.167252 0.062369 -0.163862
v 0.206981 0.062369 -0.112085
v 0.231956 0.062369 -0.051790
v 0.240475 0.062369 0.012915
v 0.290475 0.062369 -0.187085
v -0.309525 0.062369 0.212915
v -0.309525 0.062369 -0.187085
v -0.309525 0.012369 0.212915
v -0.309525 0.012369 -0.187085
v 0.190475 0.012369 0.312915
v 0.290475 0.012369 0.212915
v 0.190475 0.062369 0.312915
v 0.290475 0.062369 0.212915
v 0.290475 0.012369 -0.187085
v 0.190475 0.012369 -0.287085
v 0.290475 0.062369 -0.187085
v 0.190475 0.062369 -0.287085
v 0.190475 0.062369 -0.287085
v 0.190475 0.012369 -0.287085
v -0.209525 0.062369 -0.287085
v -0.209525 0.012369 -0.287085
v -0.209525 0.062369 0.312915
v -0.209525 0.012369 0.312915
v 0.190475 0.062369 0.312915
v 0.190475 0.012369 0.312915
v -0.309525 0.012369 -0.187085
v -0.209525 0.012369 -0.287085
v -0.309525 0.012369 0.212915
v -0.209525 0.012369 0.312915
v 0.190475 0.012369 -0.287085
v 0.190475 0.012369 0.312915
v 0.290475 0.012369 -0.187085
v 0.290475 0.012369 0.212915
v -0.209525 0.062369 0.312915
v -0.309525 0.062369 0.212915
v -0.209525 0.012369 0.312915
v -0.309525 0.012369 0.212915
v 0.290475 0.012369 0.212915
v 0.290475 0.012369 -0.187085
v 0.290475 0.062369 0.212915
v 0.290475 0.062369 -0.187085
v -0.309525 0.062369 -0.187085
v -0.209525 0.062369 -0.287085
v -0.309525 0.012369 -0.187085
v -0.209525 0.012369 -0.287085
v -0.048348 0.362369 0.157804
v -0.048348 0.162369 0.157804
v -0.009525 0.362369 0.162915
v -0.009525 0.162369 0.162915
v 0.096541 0.362369 -0.093151
v 0.096541 0.162369 -0.093151
v 0.065475 0.362369 -0.116989
v 0.065475 0.162369 -0.116989
v -0.154414 0.362369 -0.025908
v -0.139429 0.362369 -0.062085
v -0.154414 0.162369 -0.025908
v -0.139429 0.162369 -0.062085
v -0.159525 0.362369 0.012915
v -0.154414 0.362369 -0.025908
v -0.159525 0.162369 0.012915
v -0.154414 0.162369 -0.025908
v 0.065475 0.362369 -0.116989
v 0.065475 0.162369 -0.116989
v 0.029298 0.362369 -0.131974
v 0.029298 0.162369 -0.131974
v 0.120379 0.162369 -0.062085
v 0.096541 0.162369 -0.093151
v 0.120379 0.362369 -0.062085
v 0.096541 0.362369 -0.093151
v 0.065475 0.362369 0.142819
v 0.065475 0.162369 0.142819
v 0.096541 0.362369 0.118981
v 0.096541 0.162369 0.118981
v 0.096541 0.162369 0.118981
v 0.120379 0.162369 0.087915
v 0.096541 0.362369 0.118981
v 0.120379 0.362369 0.087915
v -0.009525 0.362369 -0.137085
v -0.009525 0.162369 -0.137085
v -0.048348 0.362369 -0.131974
v -0.048348 0.162369 -0.131974
v 0.135364 0.162369 0.051738
v 0.140475 0.162369 0.012915
v 0.135364 0.362369 0.051738
v 0.140475 0.362369 0.012915
v -0.084525 0.362369 0.142819
v -0.084525 0.162369 0.142819
v -0.048348 0.362369 0.157804
v -0.048348 0.162369 0.157804
v 0.135364 0.162369 -0.025908
v 0.120379 0.162369 -0.062085
v 0.135364 0.362369 -0.025908
v 0.120379 0.362369 -0.062085
v -0.159525 0.362369 0.012915
v -0.154414 0.362369 0.051738
v -0.154414 0.362369 -0.025908
v -0.139429 0.362369 0.087915
v -0.139429 0.362369 -0.062085
v -0.115591 0.362369 0.118981
v -0.115591 0.362369 -0.093151
v -0.084525 0.362369 0.142819
v -0.084525 0.362369 -0.116989
v -0.048348 0.362369 0.157804
v -0.048348 0.362369 -0.131974
v -0.009525 0.362369 0.162915
v -0.009525 0.362369 -0.137085
v 0.029298 0.362369 -0.131974
v 0.029298 0.362369 0.157804
v 0.065475 0.362369 0.142819
v 0.065475 0.362369 -0.116989
v 0.096541 0.362369 0.118981
v 0.096541 0.362369 -0.093151
v 0.120379 0.362369 -0.062085
v 0.120379 0.362369 0.087915
v 0.135364 0.362369 0.051738
v 0.135364 0.362369 -0.025908
v 0.140475 0.362369 0.012915
v 0.120379 0.162369 0.087915
v 0.135364 0.162369 0.051738
v 0.120379 0.362369 0.087915
v 0.135364 0.362369 0.051738
v -0.115591 0.362369 0.118981
v -0.115591 0.162369 0.118981
v -0.084525 0.362369 0.142819
v -0.084525 0.162369 0.142819
v 0.029298 0.362369 0.157804
v 0.029298 0.162369 0.157804
v 0.065475 0.362369 0.142819
v 0.065475 0.162369 0.142819
v 0.029298 0.362369 -0.131974
v 0.029298 0.162369 -0.131974
v -0.009525 0.362369 -0.137085
v -0.009525 0.162369 -0.137085
v -0.115591 0.362369 0.118981
v -0.139429 0.362369 0.087915
v -0.115591 0.162369 0.118981
v -0.139429 0.162369 0.087915
v -0.139429 0.362369 0.087915
v -0.154414 0.362369 0.051738
v -0.139429 0.162369 0.087915
v -0.154414 0.162369 0.051738
v -0.048348 0.362369 -0.131974
v -0.048348 0.162369 -0.131974
v -0.084525 0.362369 -0.116989
v -0.084525 0.162369 -0.116989
v -0.084525 0.362369 -0.116989
v -0.084525 0.162369 -0.116989
v -0.115591 0.362369 -0.093151
v -0.115591 0.162369 -0.093151
v 0.140475 0.162369 0.012915
v 0.135364 0.162369 -0.025908
v 0.140475 0.362369 0.012915
v 0.135364 0.362369 -0.025908
v -0.139429 0.362369 -0.062085
v -0.115591 0.362369 -0.093151
v -0.139429 0.162369 -0.062085
v -0.115591 0.162369 -0.093151
v -0.009525 0.362369 0.162915
v -0.009525 0.162369 0.162915
v 0.029298 0.362369 0.157804
v 0.029298 0.162369 0.157804
v -0.154414 0.362369 0.051738
v -0.159525 0.362369 0.012915
v -0.154414 0.162369 0.051738
v -0.159525 0.162369 0.012915
v -0.186302 0.062369 0.189692
v -0.150946 0.162369 0.154336
v -0.226031 0.062369 0.137915
v -0.182730 0.162369 0.112915
v 0.042239 0.162369 -0.180270
v 0.055180 0.062369 -0.228566
v -0.009525 0.162369 -0.187085
v -0.009525 0.062369 -0.237085
v 0.042239 0.162369 0.206100
v 0.055180 0.062369 0.254396
v 0.090475 0.162369 0.186120
v 0.115475 0.062369 0.229421
v -0.109525 0.162369 -0.160290
v -0.134525 0.062369 -0.203591
v -0.150946 0.162369 -0.128506
v -0.186302 0.062369 -0.163862
v 0.190475 0.162369 0.012915
v 0.240475 0.062369 0.012915
v 0.183660 0.162369 -0.038849
v 0.231956 0.062369 -0.051790
v -0.182730 0.162369 -0.087085
v -0.150946 0.162369 -0.128506
v -0.226031 0.062369 -0.112085
v -0.186302 0.062369 -0.163862
v 0.090475 0.162369 -0.160290
v 0.115475 0.062369 -0.203591
v 0.042239 0.162369 -0.180270
v 0.055180 0.062369 -0.228566
v 0.206981 0.062369 0.137915
v 0.231956 0.062369 0.077620
v 0.163680 0.162369 0.112915
v 0.183660 0.162369 0.064679
v -0.009525 0.162369 0.212915
v -0.009525 0.062369 0.262915
v 0.042239 0.162369 0.206100
v 0.055180 0.062369 0.254396
v 0.167252 0.062369 0.189692
v 0.206981 0.062369 0.137915
v 0.131896 0.162369 0.154336
v 0.163680 0.162369 0.112915
v -0.209525 0.162369 0.012915
v -0.202710 0.162369 -0.038849
v -0.259525 0.062369 0.012915
v -0.251006 0.062369 -0.051790
v 0.131896 0.162369 -0.128506
v 0.167252 0.062369 -0.163862
v 0.090475 0.162369 -0.160290
v 0.115475 0.062369 -0.203591
v -0.202710 0.162369 0.064679
v -0.209525 0.162369 0.012915
v -0.251006 0.062369 0.077620
v -0.259525 0.062369 0.012915
v 0.090475 0.162369 0.186120
v 0.115475 0.062369 0.229421
v 0.131896 0.162369 0.154336
v 0.167252 0.062369 0.189692
v -0.202710 0.162369 -0.038849
v -0.182730 0.162369 -0.087085
v -0.251006 0.062369 -0.051790
v -0.226031 0.062369 -0.112085
v -0.109525 0.162369 0.186120
v -0.134525 0.062369 0.229421
v -0.061289 0.162369 0.206100
v -0.074230 0.062369 0.254396
v -0.150946 0.162369 0.154336
v -0.186302 0.062369 0.189692
v -0.109525 0.162369 0.186120
v -0.134525 0.062369 0.229421
v 0.163680 0.162369 -0.087085
v 0.206981 0.062369 -0.112085
v 0.131896 0.162369 -0.128506
v 0.167252 0.062369 -0.163862
v 0.231956 0.062369 0.077620
v 0.240475 0.062369 0.012915
v 0.183660 0.162369 0.064679
v 0.190475 0.162369 0.012915
v 0.135364 0.162369 0.051738
v 0.131896 0.162369 0.154336
v 0.140475 0.162369 0.012915
v 0.120379 0.162369 0.087915
v 0.096541 0.162369 0.118981
v 0.090475 0.162369 0.186120
v 0.065475 0.162369 0.142819
v 0.042239 0.162369 0.206100
v 0.029298 0.162369 0.157804
v -0.009525 0.162369 0.162915
v -0.009525 0.162369 0.212915
v -0.048348 0.162369 0.157804
v -0.061289 0.162369 0.206100
v -0.084525 0.162369 0.142819
v -0.109525 0.162369 0.186120
v -0.115591 0.162369 0.118981
v -0.139429 0.162369 0.087915
v -0.150946 0.162369 0.154336
v -0.154414 0.162369 0.051738
v -0.209525 0.162369 0.012915
v -0.202710 0.162369 0.064679
v -0.202710 0.162369 -0.038849
v -0.182730 0.162369 -0.087085
v -0.182730 0.162369 0.112915
v -0.159525 0.162369 0.012915
v -0.154414 0.162369 -0.025908
v -0.150946 0.162369 -0.128506
v -0.139429 0.162369 -0.062085
v -0.115591 0.162369 -0.093151
v -0.109525 0.162369 -0.160290
v -0.084525 0.162369 -0.116989
v -0.061289 0.162369 -0.180270
v -0.048348 0.162369 -0.131974
v -0.009525 0.162369 -0.137085
v -0.009525 0.162369 -0.187085
v 0.029298 0.162369 -0.131974
v 0.042239 0.162369 -0.180270
v 0.065475 0.162369 -0.116989
v 0.090475 0.162369 -0.160290
v 0.096541 0.162369 -0.093151
v 0.120379 0.162369 -0.062085
v 0.131896 0.162369 -0.128506
v 0.135364 0.162369 -0.025908
v 0.163680 0.162369 0.112915
v 0.163680 0.162369 -0.087085
v 0.183660 0.162369 0.064679
v 0.183660 0.162369 -0.038849
v 0.190475 0.162369 0.012915
v -0.226031 0.062369 0.137915
v -0.182730 0.162369 0.112915
v -0.251006 0.062369 0.077620
v -0.202710 0.162369 0.064679
v -0.061289 0.162369 0.206100
v -0.074230 0.062369 0.254396
v -0.009525 0.162369 0.212915
v -0.009525 0.062369 0.262915
v 0.183660 0.162369 -0.038849
v 0.231956 0.062369 -0.051790
v 0.163680 0.162369 -0.087085
v 0.206981 0.062369 -0.112085
v -0.061289 0.162369 -0.180270
v -0.074230 0.062369 -0.228566
v -0.109525 0.162369 -0.160290
v -0.134525 0.062369 -0.203591
v -0.009525 0.162369 -0.187085
v -0.009525 0.062369 -0.237085
v -0.061289 0.162369 -0.180270
v -0.074230 0.062369 -0.228566
vn -0.0000 1.0000 -0.0000
vn -1.0000 -0.0000 -0.0000
vn 0.7071 -0.0000 0.7071
vn 0.7071 -0.0000 -0.7071
vn -0.0000 -0.0000 -1.0000
vn -0.0000 -0.0000 1.0000
vn -0.0000 -1.0000 -0.0000
vn -0.7071 -0.0000 0.7071
vn 1.0000 -0.0000 -0.0000
vn -0.7071 -0.0000 -0.7071
vn -0.2588 -0.0000 0.9659
vn 0.5000 -0.0000 -0.8660
vn -0.9659 -0.0000 -0.2588
vn -0.8660 -0.0000 -0.5000
vn 0.2588 -0.0000 -0.9659
vn 0.8660 -0.0000 -0.5000
vn 0.7071 -0.0001 -0.7071
vn 0.5000 -0.0000 0.8660
vn 0.7071 0.0001 0.7071
vn 0.8660 -0.0000 0.5000
vn -0.2588 -0.0000 -0.9659
vn 0.9659 -0.0000 0.2588
vn -0.5000 -0.0000 0.8660
vn 0.9659 -0.0000 -0.2588
vn 0.2588 -0.0000 0.9659
vn -0.7071 -0.0001 0.7071
vn -0.8660 -0.0000 0.5000
vn -0.9659 -0.0000 0.2588
vn -0.5000 -0.0000 -0.8660
vn -0.7071 0.0001 -0.7071
vn -0.6325 0.4472 0.6324
vn -0.7746 0.4472 0.4473
vn 0.2314 0.4472 -0.8640
vn 0.0001 0.4472 -0.8944
vn 0.2315 0.4472 0.8639
vn 0.4472 0.4472 0.7746
vn -0.4473 0.4472 -0.7746
vn -0.6325 0.4472 -0.6325
vn -0.6324 0.4472 -0.6325
vn 0.8944 0.4472 -0.0001
vn 0.8640 0.4472 -0.2314
vn -0.7746 0.4472 -0.4473
vn -0.6325 0.4472 -0.6324
vn 0.4472 0.4472 -0.7746
vn 0.2315 0.4472 -0.8639
vn 0.7746 0.4472 0.4472
vn 0.8639 0.4472 0.2315
vn 0.0001 0.4472 0.8944
vn 0.2314 0.4472 0.8640
vn 0.6325 0.4472 0.6324
vn 0.7746 0.4472 0.4473
vn -0.8944 0.4472 -0.0001
vn -0.8640 0.4472 -0.2314
vn 0.6325 0.4472 -0.6325
vn 0.6324 0.4472 -0.6325
vn 0.4473 0.4472 -0.7746
vn -0.8639 0.4472 0.2315
vn -0.8944 0.4472 0.0001
vn -0.8640 0.4472 0.2314
vn 0.4473 0.4472 0.7746
vn 0.6325 0.4472 0.6325
vn 0.6324 0.4472 0.6325
vn -0.8639 0.4472 -0.2315
vn -0.7746 0.4472 -0.4472
vn -0.4472 0.4472 0.7746
vn -0.2315 0.4472 0.8639
vn -0.6325 0.4472 0.6325
vn -0.6324 0.4472 0.6325
vn -0.4473 0.4472 0.7746
vn 0.7746 0.4472 -0.4473
vn 0.6325 0.4472 -0.6324
vn 0.8640 0.4472 0.2314
vn 0.8944 0.4472 0.0001
vn -0.7746 0.4472 0.4472
vn -0.2314 0.4472 0.8640
vn -0.0001 0.4472 0.8944
vn 0.8639 0.4472 -0.2315
vn 0.7746 0.4472 -0.4472
vn -0.2315 0.4472 -0.8639
vn -0.4472 0.4472 -0.7746
vn -0.0001 0.4472 -0.8944
vn -0.2314 0.4472 -0.8640
vt -8.523872 4.921260
vt -7.874016 11.811020
vt -9.507144 2.547431
vt -6.959713 6.959713
vt -4.921260 8.523872
vt -11.811020 7.874016
vt -2.547431 9.507144
vt 0.000000 9.842520
vt 7.874016 11.811020
vt 2.547431 9.507144
vt 4.921260 8.523872
vt 6.959713 6.959713
vt 8.523872 4.921260
vt 9.507144 2.547431
vt 11.811020 7.874016
vt 9.842520 0.000000
vt 9.507144 -2.547431
vt 11.811020 -7.874016
vt 8.523872 -4.921260
vt 7.874016 -11.811020
vt 6.959713 -6.959713
vt 4.921260 -8.523872
vt 2.547431 -9.507144
vt 0.000000 -9.842520
vt -2.547431 -9.507144
vt -7.874016 -11.811020
vt -4.921260 -8.523872
vt -6.959713 -6.959713
vt -8.523872 -4.921260
vt -9.507144 -2.547431
vt -9.842520 0.000000
vt -11.811020 -7.874016
vt 7.874016 1.968504
vt -7.874016 1.968504
vt 7.874016 0.000000
vt -7.874016 0.000000
vt -2.783885 0.000000
vt 2.783885 0.000000
vt -2.783885 1.968504
vt 2.783885 1.968504
vt -0.770824 13.779530
vt -0.770824 5.905512
vt 0.770824 13.779530
vt 0.770824 5.905512
vt 5.905512 0.000000
vt 5.704287 1.528459
vt 5.704287 -1.528459
vt 5.114323 2.952756
vt 5.114323 -2.952756
vt 4.175828 4.175828
vt 4.175828 -4.175828
vt 2.952756 5.114323
vt 2.952756 -5.114323
vt 1.528459 5.704287
vt 1.528459 -5.704287
vt 0.000000 5.905512
vt 0.000000 -5.905512
vt -1.528459 -5.704287
vt -1.528459 5.704287
vt -2.952756 5.114323
vt -2.952756 -5.114323
vt -4.175828 4.175828
vt -4.175828 -4.175828
vt -5.114323 -2.952756
vt -5.114323 2.952756
vt -5.704287 1.528459
vt -5.704287 -1.528459
vt -5.905512 0.000000
vt 1.284707 -2.570416
vt 1.027765 1.823787
vt -1.284707 -2.570416
vt -1.027765 1.823787
vt -5.567770 5.567770
vt -3.937008 6.819098
vt -2.037945 7.605715
vt 0.000000 7.874016
vt 2.037945 7.605715
vt 3.937008 6.819098
vt 5.567770 5.567770
vt 7.605715 2.037945
vt 7.605715 -2.037945
vt 6.819098 -3.937008
vt 6.819098 3.937008
vt 5.567770 -5.567770
vt 3.937008 -6.819098
vt 2.037945 -7.605715
vt 0.000000 -7.874016
vt -2.037945 -7.605715
vt -3.937008 -6.819098
vt -5.567770 -5.567770
vt -6.819098 3.937008
vt -6.819098 -3.937008
vt -7.605715 2.037945
vt -7.605715 -2.037945
s 0
usemtl dark.001
f 1/1/1 2/2/1 3/3/1
f 4/4/1 2/2/1 1/1/1
f 5/5/1 2/2/1 4/4/1
f 2/2/1 6/6/1 3/3/1
f 7/7/1 2/2/1 5/5/1
f 8/8/1 9/9/1 7/7/1
f 10/10/1 9/9/1 8/8/1
f 11/11/1 9/9/1 10/10/1
f 12/12/1 9/9/1 11/11/1
f 9/9/1 2/2/1 7/7/1
f 13/13/1 9/9/1 12/12/1
f 14/14/1 15/15/1 13/13/1
f 15/15/1 9/9/1 13/13/1
f 16/16/1 15/15/1 14/14/1
f 16/16/1 17/17/1 18/18/1
f 17/17/1 19/19/1 18/18/1
f 18/18/1 15/15/1 16/16/1
f 18/18/1 19/19/1 20/20/1
f 19/19/1 21/21/1 20/20/1
f 21/21/1 22/22/1 20/20/1
f 22/22/1 23/23/1 20/20/1
f 23/23/1 24/24/1 20/20/1
f 24/24/1 25/25/1 20/20/1
f 20/20/1 25/25/1 26/26/1
f 25/25/1 27/27/1 26/26/1
f 27/27/1 28/28/1 26/26/1
f 28/28/1 29/29/1 26/26/1
f 29/29/1 30/30/1 26/26/1
f 31/31/1 3/3/1 6/6/1
f 31/31/1 6/6/1 30/30/1
f 30/30/1 6/6/1 26/26/1
f 32/32/1 26/26/1 6/6/1
f 33/33/2 34/34/2 35/35/2
f 36/36/2 35/35/2 34/34/2
f 37/37/3 38/38/3 39/39/3
s 1
f 40/40/3 39/39/3 38/38/3
f 41/37/4 42/38/4 43/39/4
s 0
f 44/40/4 43/39/4 42/38/4
f 45/34/5 46/36/5 47/33/5
f 48/35/5 47/33/5 46/36/5
f 49/34/6 50/36/6 51/33/6
f 52/35/6 51/33/6 50/36/6
f 53/32/7 54/26/7 55/6/7
f 55/6/7 54/26/7 56/2/7
f 54/26/7 57/20/7 56/2/7
f 56/2/7 57/20/7 58/9/7
f 57/20/7 59/18/7 58/9/7
f 60/15/7 58/9/7 59/18/7
f 61/40/8 62/39/8 63/38/8
s 1
f 64/37/8 63/38/8 62/39/8
s 0
f 65/36/9 66/35/9 67/34/9
f 68/33/9 67/34/9 66/35/9
s 1
f 69/40/10 70/39/10 71/38/10
s 0
f 72/37/10 71/38/10 70/39/10
s 1
usemtl metal.001
f 73/41/11 74/42/11 75/43/6
f 76/44/6 75/43/6 74/42/11
f 77/41/4 78/42/4 79/43/12
f 80/44/12 79/43/12 78/42/4
f 81/43/13 82/41/14 83/44/13
f 84/42/14 83/44/13 82/41/14
f 85/43/2 86/41/13 87/44/2
f 88/42/13 87/44/2 86/41/13
f 89/41/12 90/42/12 91/43/15
f 92/44/15 91/43/15 90/42/12
f 93/42/16 94/44/4 95/41/16
f 96/43/17 95/41/16 94/44/4
f 97/41/18 98/42/18 99/43/3
f 100/44/3 99/43/3 98/42/18
f 101/42/19 102/44/20 103/41/3
f 104/43/20 103/41/3 102/44/20
f 105/41/5 106/42/5 107/43/21
f 108/44/21 107/43/21 106/42/5
f 109/42/22 110/44/9 111/41/22
f 112/43/9 111/41/22 110/44/9
f 113/41/23 114/42/23 115/43/11
f 116/44/11 115/43/11 114/42/23
f 117/42/24 118/44/16 119/41/24
f 120/43/16 119/41/24 118/44/16
s 0
f 121/45/1 122/46/1 123/47/1
f 122/46/1 124/48/1 123/47/1
f 123/47/1 124/48/1 125/49/1
f 124/48/1 126/50/1 125/49/1
f 125/49/1 126/50/1 127/51/1
f 126/50/1 128/52/1 127/51/1
f 127/51/1 128/52/1 129/53/1
f 128/52/1 130/54/1 129/53/1
f 129/53/1 130/54/1 131/55/1
f 130/54/1 132/56/1 131/55/1
f 131/55/1 132/56/1 133/57/1
f 133/57/1 132/56/1 134/58/1
f 132/56/1 135/59/1 134/58/1
f 135/59/1 136/60/1 134/58/1
f 134/58/1 136/60/1 137/61/1
f 136/60/1 138/62/1 137/61/1
f 137/61/1 138/62/1 139/63/1
f 139/63/1 138/62/1 140/64/1
f 138/62/1 141/65/1 140/64/1
f 141/65/1 142/66/1 140/64/1
f 140/64/1 142/66/1 143/67/1
f 144/68/1 143/67/1 142/66/1
s 1
f 145/42/20 146/44/22 147/41/20
f 148/43/22 147/41/20 146/44/22
f 149/41/8 150/42/8 151/43/23
f 152/44/23 151/43/23 150/42/8
f 153/41/25 154/42/25 155/43/18
f 156/44/18 155/43/18 154/42/25
f 157/41/15 158/42/15 159/43/5
f 160/44/5 159/43/5 158/42/15
f 161/43/26 162/41/27 163/44/8
f 164/42/27 163/44/8 162/41/27
f 165/43/27 166/41/28 167/44/27
f 168/42/28 167/44/27 166/41/28
f 169/41/21 170/42/21 171/43/29
f 172/44/29 171/43/29 170/42/21
f 173/41/29 174/42/29 175/43/10
f 176/44/10 175/43/10 174/42/29
f 177/42/9 178/44/24 179/41/9
f 180/43/24 179/41/9 178/44/24
f 181/43/14 182/41/10 183/44/14
f 184/42/30 183/44/14 182/41/10
f 185/41/6 186/42/6 187/43/25
f 188/44/25 187/43/25 186/42/6
f 189/43/28 190/41/2 191/44/28
f 192/42/2 191/44/28 190/41/2
usemtl metalDark.001
f 193/69/31 194/70/31 195/71/32
f 196/72/32 195/71/32 194/70/31
f 197/72/33 198/71/33 199/70/34
f 200/69/34 199/70/34 198/71/33
f 201/72/35 202/71/35 203/70/36
f 204/69/36 203/70/36 202/71/35
f 205/72/37 206/71/37 207/70/38
f 208/69/39 207/70/38 206/71/37
f 209/72/40 210/71/40 211/70/41
f 212/69/41 211/70/41 210/71/40
f 213/70/42 214/72/43 215/69/42
f 216/71/43 215/69/42 214/72/43
f 217/72/44 218/71/44 219/70/45
f 220/69/45 219/70/45 218/71/44
f 221/71/46 222/69/47 223/72/46
f 224/70/47 223/72/46 222/69/47
f 225/72/48 226/71/48 227/70/49
f 228/69/49 227/70/49 226/71/48
f 229/71/50 230/69/51 231/72/50
f 232/70/51 231/72/50 230/69/51
f 233/70/52 234/72/53 235/69/52
f 236/71/53 235/69/52 234/72/53
f 237/72/54 238/71/55 239/70/56
f 240/69/44 239/70/56 238/71/55
f 241/70/57 242/72/58 243/69/59
f 244/71/58 243/69/59 242/72/58
f 245/72/60 246/71/60 247/70/61
f 248/69/62 247/70/61 246/71/60
f 249/70/63 250/72/64 251/69/63
f 252/71/64 251/69/63 250/72/64
f 253/72/65 254/71/65 255/70/66
f 256/69/66 255/70/66 254/71/65
f 257/72/67 258/71/68 259/70/69
f 260/69/65 259/70/69 258/71/68
f 261/72/70 262/71/70 263/70/71
f 264/69/71 263/70/71 262/71/70
f 265/71/72 266/69/73 267/72/72
f 268/70/73 267/72/72 266/69/73
s 0
f 269/66/1 270/73/1 271/68/1
f 272/65/1 270/73/1 269/66/1
f 273/62/1 274/74/1 272/65/1
f 274/74/1 270/73/1 272/65/1
f 275/60/1 274/74/1 273/62/1
f 276/75/1 274/74/1 275/60/1
f 277/59/1 276/75/1 275/60/1
f 278/56/1 279/76/1 277/59/1
f 279/76/1 276/75/1 277/59/1
f 280/54/1 279/76/1 278/56/1
f 281/77/1 279/76/1 280/54/1
f 282/52/1 281/77/1 280/54/1
f 283/78/1 281/77/1 282/52/1
f 284/50/1 283/78/1 282/52/1
f 285/48/1 286/79/1 284/50/1
f 286/79/1 283/78/1 284/50/1
f 287/46/1 286/79/1 285/48/1
f 288/35/1 289/80/1 290/81/1
f 290/81/1 289/80/1 291/82/1
f 289/80/1 292/83/1 291/82/1
f 292/83/1 293/45/1 291/82/1
f 292/83/1 286/79/1 287/46/1
f 293/45/1 294/47/1 291/82/1
f 293/45/1 292/83/1 287/46/1
f 291/82/1 294/47/1 295/84/1
f 294/47/1 296/49/1 295/84/1
f 296/49/1 297/51/1 295/84/1
f 295/84/1 297/51/1 298/85/1
f 297/51/1 299/53/1 298/85/1
f 298/85/1 299/53/1 300/86/1
f 299/53/1 301/55/1 300/86/1
f 301/55/1 302/57/1 300/86/1
f 300/86/1 302/57/1 303/87/1
f 302/57/1 304/58/1 303/87/1
f 303/87/1 304/58/1 305/88/1
f 304/58/1 306/61/1 305/88/1
f 305/88/1 306/61/1 307/89/1
f 306/61/1 308/63/1 307/89/1
f 308/63/1 309/64/1 307/89/1
f 307/89/1 309/64/1 310/90/1
f 309/64/1 311/67/1 310/90/1
f 311/67/1 271/68/1 310/90/1
f 271/68/1 312/91/1 310/90/1
f 310/90/1 312/91/1 313/92/1
f 312/91/1 271/68/1 270/73/1
f 312/91/1 314/93/1 313/92/1
f 313/92/1 314/93/1 315/94/1
f 316/36/1 315/94/1 314/93/1
s 1
f 317/69/74 318/70/74 319/71/57
f 320/72/57 319/71/57 318/70/74
f 321/72/75 322/71/75 323/70/76
f 324/69/76 323/70/76 322/71/75
f 325/72/77 326/71/77 327/70/78
f 328/69/78 327/70/78 326/71/77
f 329/72/79 330/71/79 331/70/80
f 332/69/80 331/70/80 330/71/79
f 333/72/81 334/71/81 335/70/82
f 336/69/82 335/70/82 334/71/81
o turret
v -0.015341 0.912369 -0.256269
v -0.003709 0.912369 -0.256269
v -0.015341 0.912369 -0.267901
v -0.003709 0.912369 -0.267901
v -0.015341 0.912369 -0.256269
v -0.015341 0.912369 -0.267901
v -0.021158 0.712369 -0.250452
v -0.021158 0.712369 -0.273718
v -0.034525 0.712369 -0.237085
v -0.034525 0.712369 -0.287085
v -0.034525 0.662369 -0.237085
v -0.034525 0.662369 -0.287085
v -0.034525 0.712369 -0.237085
v -0.034525 0.662369 -0.237085
v 0.015475 0.712369 -0.237085
v 0.015475 0.662369 -0.237085
v 0.015475 0.712369 -0.287085
v 0.015475 0.662369 -0.287085
v -0.034525 0.712369 -0.287085
v -0.034525 0.662369 -0.287085
v -0.003709 0.912369 -0.267901
v 0.002108 0.712369 -0.273718
v -0.015341 0.912369 -0.267901
v -0.021158 0.712369 -0.273718
v -0.003709 0.912369 -0.256269
v 0.002108 0.712369 -0.250452
v -0.003709 0.912369 -0.267901
v 0.002108 0.712369 -0.273718
v 0.015475 0.662369 -0.237085
v 0.015475 0.662369 -0.287085
v 0.015475 0.712369 -0.237085
v 0.015475 0.712369 -0.287085
v -0.015341 0.912369 -0.256269
v -0.021158 0.712369 -0.250452
v -0.003709 0.912369 -0.256269
v 0.002108 0.712369 -0.250452
v -0.034525 0.712369 -0.237085
v 0.015475 0.712369 -0.237085
v 0.002108 0.712369 -0.250452
v -0.021158 0.712369 -0.250452
v -0.021158 0.712369 -0.273718
v -0.034525 0.712369 -0.287085
v 0.002108 0.712369 -0.273718
v 0.015475 0.712369 -0.287085
v -0.159525 0.562369 -0.237085
v -0.109525 0.562369 -0.237085
v -0.159525 0.562369 -0.337085
v -0.109525 0.562369 -0.337085
v 0.090475 0.562369 -0.237085
v 0.140475 0.562369 -0.237085
v 0.090475 0.562369 -0.337085
v 0.140475 0.562369 -0.337085
v -0.159525 0.412369 -0.337085
v 0.140475 0.412369 -0.337085
v -0.159525 0.412369 -0.237085
v 0.140475 0.412369 -0.237085
v 0.140475 0.412369 -0.237085
v 0.140475 0.412369 -0.337085
v 0.140475 0.562369 -0.237085
v 0.140475 0.562369 -0.337085
v -0.159525 0.562369 -0.237085
v -0.159525 0.562369 -0.337085
v -0.159525 0.412369 -0.237085
v -0.159525 0.412369 -0.337085
v 0.090475 0.562369 -0.337085
v 0.140475 0.562369 -0.337085
v -0.109525 0.562369 -0.337085
v -0.159525 0.562369 -0.337085
v 0.140475 0.412369 -0.337085
v -0.159525 0.412369 -0.337085
v 0.169764 0.612369 0.185276
v -0.009525 0.612369 0.185276
v 0.190475 0.591659 0.185276
v 0.190475 0.407091 0.185276
v -0.009525 0.407091 0.185276
v -0.188814 0.612369 0.185276
v -0.209525 0.591659 0.185276
v -0.209525 0.407091 0.185276
v -0.034525 0.662369 -0.287085
v 0.015475 0.662369 -0.287085
v -0.109525 0.662369 -0.337085
v 0.090475 0.662369 -0.337085
v 0.015475 0.662369 -0.237085
v 0.090475 0.662369 -0.237085
v -0.109525 0.662369 -0.237085
v -0.109525 0.662369 -0.337085
v -0.109525 0.562369 -0.237085
v -0.109525 0.562369 -0.337085
v 0.090475 0.562369 -0.237085
v 0.090475 0.562369 -0.337085
v 0.090475 0.662369 -0.237085
v 0.090475 0.662369 -0.337085
v 0.090475 0.662369 -0.337085
v 0.090475 0.562369 -0.337085
v -0.109525 0.662369 -0.337085
v -0.109525 0.562369 -0.337085
v -0.109525 0.662369 -0.237085
v -0.034525 0.662369 -0.237085
v 0.190475 0.662369 -0.237085
v 0.240475 0.612369 -0.237085
v 0.090475 0.662369 -0.237085
v 0.090475 0.562369 -0.237085
v 0.140475 0.562369 -0.237085
v 0.140475 0.412369 -0.237085
v 0.240475 0.362369 -0.237085
v -0.209525 0.662369 -0.237085
v -0.109525 0.662369 -0.237085
v -0.259525 0.612369 -0.237085
v -0.109525 0.562369 -0.237085
v -0.159525 0.562369 -0.237085
v -0.159525 0.412369 -0.237085
v -0.259525 0.362369 -0.237085
v -0.209525 0.407091 0.185276
v -0.209525 0.407091 0.285276
v -0.009525 0.407091 0.185276
v 0.190475 0.407091 0.285276
v 0.190475 0.407091 0.185276
v 0.190475 0.562369 0.362915
v 0.190475 0.591659 0.362915
v 0.190475 0.407091 0.285276
v 0.190475 0.591659 0.185276
v 0.190475 0.407091 0.185276
v 0.169764 0.612369 0.185276
v 0.190475 0.591659 0.185276
v 0.169764 0.612369 0.362915
v 0.190475 0.591659 0.362915
v -0.188814 0.612369 0.185276
v -0.009525 0.612369 0.185276
v -0.188814 0.612369 0.362915
v 0.169764 0.612369 0.185276
v 0.169764 0.612369 0.362915
v -0.209525 0.591659 0.185276
v -0.188814 0.612369 0.185276
v -0.209525 0.591659 0.362915
v -0.188814 0.612369 0.362915
v -0.209525 0.562369 0.362915
v -0.209525 0.407091 0.285276
v -0.209525 0.591659 0.362915
v -0.209525 0.407091 0.185276
v -0.209525 0.591659 0.185276
v -0.209525 0.562369 0.362915
v -0.209525 0.591659 0.362915
v -0.259525 0.562369 0.362915
v -0.259525 0.612369 0.362915
v -0.209525 0.662369 0.362915
v -0.188814 0.612369 0.362915
v 0.169764 0.612369 0.362915
v 0.190475 0.662369 0.362915
v 0.240475 0.612369 0.362915
v 0.190475 0.591659 0.362915
v 0.190475 0.562369 0.362915
v 0.240475 0.562369 0.362915
v -0.209525 0.562369 0.362915
v -0.259525 0.562369 0.362915
v -0.209525 0.407091 0.285276
v -0.259525 0.362369 0.262915
v 0.190475 0.562369 0.362915
v 0.190475 0.407091 0.285276
v 0.240475 0.562369 0.362915
v 0.240475 0.362369 0.262915
v 0.240475 0.612369 0.362915
v 0.240475 0.612369 -0.237085
v 0.190475 0.662369 0.362915
v 0.190475 0.662369 -0.237085
v -0.209525 0.662369 0.362915
v -0.209525 0.662369 -0.237085
v -0.259525 0.612369 0.362915
v -0.259525 0.612369 -0.237085
v 0.240475 0.562369 0.362915
v 0.240475 0.362369 0.262915
v 0.240475 0.612369 0.362915
v 0.240475 0.362369 -0.237085
v 0.240475 0.612369 -0.237085
v -0.259525 0.562369 0.362915
v -0.259525 0.612369 0.362915
v -0.259525 0.362369 0.262915
v -0.259525 0.612369 -0.237085
v -0.259525 0.362369 -0.237085
v -0.209525 0.662369 -0.237085
v -0.209525 0.662369 0.362915
v -0.109525 0.662369 -0.237085
v -0.034525 0.662369 -0.237085
v 0.015475 0.662369 -0.237085
v 0.090475 0.662369 -0.237085
v 0.190475 0.662369 0.362915
v 0.190475 0.662369 -0.237085
v -0.259525 0.362369 -0.237085
v 0.240475 0.362369 -0.237085
v -0.259525 0.362369 0.262915
v 0.240475 0.362369 0.262915
vn -0.0000 1.0000 -0.0000
vn -0.9996 0.0291 -0.0000
vn -1.0000 -0.0000 -0.0000
vn -0.0000 -0.0000 1.0000
vn -0.0000 -0.0000 -1.0000
vn -0.0000 0.0291 -0.9996
vn 0.9996 0.0291 -0.0000
vn 1.0000 -0.0000 -0.0000
vn -0.0000 0.0291 0.9996
vn -0.0000 -1.0000 -0.0000
vn -0.7071 -0.7071 -0.0000
vn 0.7071 -0.7071 -0.0000
vn -0.0000 -0.4472 0.8944
vn 0.7071 0.7071 -0.0000
vn -0.7071 0.7071 -0.0000
vt 0.228991 -11.037950
vt -0.228991 -11.037950
vt 0.228991 -11.495930
vt -0.228991 -11.495930
vt -11.037950 21.637739
vt -11.495930 21.637739
vt -10.808960 13.760390
vt -11.724930 13.760390
vt -10.282690 13.779530
vt -12.251190 13.779530
vt -10.282690 11.811020
vt -12.251190 11.811020
vt -0.984252 13.779530
vt -0.984252 11.811020
vt 0.984252 13.779530
vt 0.984252 11.811020
vt -0.228991 21.310209
vt -0.457982 13.432870
vt 0.228991 21.310209
vt 0.457982 13.432870
vt 11.037950 21.637739
vt 10.808960 13.760390
vt 11.495930 21.637739
vt 11.724930 13.760390
vt 10.282690 11.811020
vt 12.251190 11.811020
vt 10.282690 13.779530
vt 12.251190 13.779530
vt -0.228991 21.965260
vt -0.457982 14.087920
vt 0.228991 21.965260
vt 0.457982 14.087920
vt 0.984252 -10.282690
vt -0.984252 -10.282690
vt -0.457982 -10.808960
vt 0.457982 -10.808960
vt 0.457982 -11.724930
vt 0.984252 -12.251190
vt -0.457982 -11.724930
vt -0.984252 -12.251190
vt 5.905512 -10.282690
vt 3.937008 -10.282690
vt 5.905512 -14.219700
vt 3.937008 -14.219700
vt -3.937008 -10.282690
vt -5.905512 -10.282690
vt -3.937008 -14.219700
vt -5.905512 -14.219700
vt 10.282690 1.968504
vt 14.219700 1.968504
vt 10.282690 7.874016
vt 14.219700 7.874016
vt -10.282690 7.874016
vt -14.219700 7.874016
vt -10.282690 1.968504
vt -14.219700 1.968504
vt -3.937008 7.874016
vt -5.905512 7.874016
vt 3.937008 7.874016
vt 5.905512 7.874016
vt -5.905512 1.968504
vt 5.905512 1.968504
vt 7.058635 9.842520
vt 0.000000 9.842520
vt 7.874016 9.027139
vt 7.874016 1.760683
vt 0.000000 1.760683
vt -7.058635 9.842520
vt -7.874016 9.027139
vt -7.874016 1.760683
vt -14.219700 11.811020
vt 14.219700 11.811020
vt -3.937008 11.811020
vt 3.937008 11.811020
vt -7.874016 11.811020
vt -9.842520 9.842520
vt -9.842520 0.000000
vt 7.874016 11.811020
vt 9.842520 9.842520
vt 9.842520 0.000000
vt 7.874016 6.345683
vt 7.874016 10.282690
vt 0.000000 6.345683
vt -7.874016 10.282690
vt -7.874016 6.345683
vt 13.339360 7.874016
vt 13.339360 9.027139
vt 10.282690 1.760683
vt 6.345683 9.027139
vt 6.345683 1.760683
vt 6.345683 1.968504
vt 6.345683 0.815381
vt 13.339360 1.968504
vt 13.339360 0.815381
vt -7.058635 6.345683
vt -0.000000 6.345683
vt -7.058635 13.339360
vt 7.058635 6.345683
vt 7.058635 13.339360
vt -6.345683 0.815381
vt -6.345683 1.968504
vt -13.339360 0.815381
vt -13.339360 1.968504
vt -13.339360 7.874016
vt -10.282690 1.760683
vt -13.339360 9.027139
vt -6.345683 1.760683
vt -6.345683 9.027139
vt -7.874016 7.874016
vt -9.842520 7.874016
vt 7.874016 7.874016
vt 9.842520 7.874016
vt -7.874016 13.008280
vt -9.842520 13.008280
vt -7.874016 6.173362
vt -9.842520 4.204858
vt 7.874016 13.008280
vt 7.874016 6.173362
vt 9.842520 13.008280
vt 9.842520 4.204858
vt -13.339360 0.000000
vt 10.282690 0.000000
vt -13.339360 2.783885
vt 10.282690 2.783885
vt 13.339360 2.783885
vt -10.282690 2.783885
vt 13.339360 0.000000
vt -10.282690 0.000000
vt -9.402349 0.000000
vt -13.339360 9.842520
vt 10.282690 9.842520
vt 13.339360 9.842520
vt 9.402349 0.000000
vt -10.282690 9.842520
vt 7.874016 -10.282690
vt 7.874016 13.339360
vt -7.874016 13.339360
vt -7.874016 -10.282690
vt -9.842520 -10.282690
vt 9.842520 -10.282690
vt -9.842520 9.402349
vt 9.842520 9.402349
s 0
usemtl dark.001
f 337/95/83 338/96/83 339/97/83
f 340/98/83 339/97/83 338/96/83
f 341/99/84 342/100/84 343/101/84
f 344/102/84 343/101/84 342/100/84
f 345/103/85 346/104/85 347/105/85
f 348/106/85 347/105/85 346/104/85
f 349/107/86 350/108/86 351/109/86
f 352/110/86 351/109/86 350/108/86
f 353/107/87 354/108/87 355/109/87
f 356/110/87 355/109/87 354/108/87
f 357/111/88 358/112/88 359/113/88
f 360/114/88 359/113/88 358/112/88
f 361/115/89 362/116/89 363/117/89
f 364/118/89 363/117/89 362/116/89
f 365/119/90 366/120/90 367/121/90
f 368/122/90 367/121/90 366/120/90
f 369/123/91 370/124/91 371/125/91
f 372/126/91 371/125/91 370/124/91
f 373/127/83 374/128/83 375/129/83
f 376/130/83 377/131/83 378/132/83
f 376/130/83 373/127/83 375/129/83
f 377/131/83 379/133/83 378/132/83
f 378/132/83 373/127/83 376/130/83
f 378/132/83 379/133/83 380/134/83
f 379/133/83 375/129/83 374/128/83
f 374/128/83 380/134/83 379/133/83
f 381/135/83 382/136/83 383/137/83
f 384/138/83 383/137/83 382/136/83
f 385/139/83 386/140/83 387/141/83
f 388/142/83 387/141/83 386/140/83
f 389/142/92 390/137/92 391/140/92
f 392/135/92 391/140/92 390/137/92
f 393/143/90 394/144/90 395/145/90
f 396/146/90 395/145/90 394/144/90
f 397/147/85 398/148/85 399/149/85
f 400/150/85 399/149/85 398/148/85
s 1
f 401/151/87 402/152/90 403/153/87
f 403/153/87 402/152/90 404/154/87
s 0
f 402/152/87 405/155/87 404/154/87
f 406/156/87 404/154/87 405/155/87
f 407/157/86 408/158/86 409/159/86
f 410/160/86 409/159/86 411/161/86
f 412/162/86 413/163/86 408/158/86
f 413/163/86 414/164/86 408/158/86
f 408/158/86 411/161/86 409/159/86
f 411/161/86 408/158/86 414/164/86
usemtl metal.001
f 415/132/83 416/134/83 417/138/83
f 417/138/83 416/134/83 418/141/83
f 416/134/83 419/128/83 420/139/83
f 421/105/85 422/165/85 423/147/85
f 424/148/85 423/147/85 422/165/85
f 425/145/90 426/146/90 427/119/90
f 428/166/90 427/119/90 426/146/90
f 429/167/87 430/151/87 431/168/87
f 432/153/87 431/168/87 430/151/87
f 433/136/83 434/127/83 417/138/83
f 434/127/83 415/132/83 417/138/83
f 420/139/83 418/141/83 416/134/83
usemtl metalRed.001
f 435/169/87 436/170/87 437/167/87
f 438/151/87 437/167/87 439/152/87
f 439/152/87 436/170/87 440/155/87
f 436/170/87 439/152/87 437/167/87
f 436/170/87 441/171/87 440/155/87
f 442/172/87 443/168/87 444/173/87
f 443/168/87 445/153/87 444/173/87
f 445/153/87 446/154/87 444/173/87
f 446/154/87 447/156/87 444/173/87
f 444/173/87 447/156/87 448/174/87
f 447/156/87 440/155/87 441/171/87
f 441/171/87 448/174/87 447/156/87
f 449/175/83 450/176/83 451/177/83
f 450/176/83 452/178/83 451/177/83
f 453/179/83 451/177/83 452/178/83
f 454/180/85 455/181/85 456/182/85
f 455/181/85 457/183/85 456/182/85
f 458/184/85 456/182/85 457/183/85
f 459/185/93 460/186/93 461/187/93
f 462/188/93 461/187/93 460/186/93
f 463/189/92 464/190/92 465/191/92
f 464/190/92 466/192/92 465/191/92
f 467/193/92 465/191/92 466/192/92
f 468/194/94 469/195/94 470/196/94
f 471/197/94 470/196/94 469/195/94
f 472/198/90 473/199/90 474/200/90
f 473/199/90 475/201/90 474/200/90
f 476/202/90 474/200/90 475/201/90
f 477/203/86 478/163/86 479/204/86
f 480/170/86 479/204/86 478/163/86
f 481/169/86 480/170/86 482/162/86
f 482/162/86 480/170/86 478/163/86
f 482/162/86 483/157/86 484/172/86
f 484/172/86 483/157/86 485/173/86
f 484/172/86 481/169/86 482/162/86
f 483/157/86 486/159/86 485/173/86
f 486/159/86 487/205/86 485/173/86
f 488/206/86 485/173/86 487/205/86
f 489/207/95 490/208/95 491/209/95
f 490/208/95 492/210/95 491/209/95
f 493/211/95 494/212/95 495/213/95
f 495/213/95 494/212/95 496/214/95
f 494/212/95 491/209/95 492/210/95
f 492/210/95 496/214/95 494/212/95
f 497/215/96 498/216/96 499/217/96
s 1
f 500/218/96 499/217/96 498/216/96
f 501/219/97 502/220/97 503/221/97
s 0
f 504/222/97 503/221/97 502/220/97
f 505/198/90 506/223/90 507/224/90
f 506/223/90 508/216/90 507/224/90
f 509/225/90 507/224/90 508/216/90
f 510/180/85 511/226/85 512/227/85
f 511/226/85 513/228/85 512/227/85
f 514/222/85 512/227/85 513/228/85
f 515/229/83 516/230/83 517/136/83
f 517/136/83 516/230/83 518/127/83
f 518/127/83 516/230/83 519/128/83
f 519/128/83 516/230/83 520/139/83
f 516/230/83 521/231/83 520/139/83
f 522/232/83 520/139/83 521/231/83
f 523/233/92 524/234/92 525/235/92
f 526/236/92 525/235/92 524/234/92
o Group
v -0.073189 0.494730 0.385276
v -0.070192 0.501966 0.385276
v -0.073189 0.524730 0.385276
v -0.077957 0.488517 0.385276
v -0.077957 0.530943 0.385276
v -0.084170 0.483749 0.385276
v -0.084170 0.535711 0.385276
v -0.091405 0.480752 0.385276
v -0.091405 0.538708 0.385276
v -0.099170 0.479730 0.385276
v -0.099170 0.539730 0.385276
v -0.106934 0.480752 0.385276
v -0.106934 0.538708 0.385276
v -0.114170 0.483749 0.385276
v -0.114170 0.535711 0.385276
v -0.120383 0.488517 0.385276
v -0.120383 0.530943 0.385276
v -0.125150 0.494730 0.385276
v -0.125150 0.524730 0.385276
v -0.128147 0.501966 0.385276
v -0.128147 0.517495 0.385276
v -0.129170 0.509730 0.385276
v -0.070192 0.517495 0.385276
v -0.069170 0.509730 0.385276
v -0.149170 0.509730 0.385276
v -0.147466 0.496789 0.385276
v -0.147466 0.522671 0.385276
v -0.142471 0.484730 0.385276
v -0.142471 0.534730 0.385276
v -0.134525 0.474375 0.385276
v -0.134525 0.545085 0.385276
v -0.070192 0.501966 0.385276
v -0.074170 0.466429 0.385276
v -0.069170 0.509730 0.385276
v -0.073189 0.494730 0.385276
v -0.077957 0.488517 0.385276
v -0.084170 0.483749 0.385276
v -0.086229 0.461434 0.385276
v -0.091405 0.480752 0.385276
v -0.099170 0.479730 0.385276
v -0.099170 0.459730 0.385276
v -0.106934 0.480752 0.385276
v -0.112111 0.461434 0.385276
v -0.114170 0.483749 0.385276
v -0.120383 0.488517 0.385276
v -0.124170 0.466429 0.385276
v -0.125150 0.494730 0.385276
v -0.128147 0.501966 0.385276
v -0.129170 0.509730 0.385276
v -0.128147 0.517495 0.385276
v -0.125150 0.524730 0.385276
v -0.124170 0.553031 0.385276
v -0.120383 0.530943 0.385276
v -0.114170 0.535711 0.385276
v -0.112111 0.558026 0.385276
v -0.106934 0.538708 0.385276
v -0.099170 0.539730 0.385276
v -0.099170 0.559730 0.385276
v -0.091405 0.538708 0.385276
v -0.086229 0.558026 0.385276
v -0.084170 0.535711 0.385276
v -0.077957 0.530943 0.385276
v -0.074170 0.553031 0.385276
v -0.073189 0.524730 0.385276
v -0.070192 0.517495 0.385276
v -0.063814 0.474375 0.385276
v -0.063814 0.545085 0.385276
v -0.055868 0.484730 0.385276
v -0.055868 0.534730 0.385276
v -0.050873 0.496789 0.385276
v -0.050873 0.522671 0.385276
v -0.049170 0.509730 0.385276
v -0.112111 0.461434 0.385276
v -0.112111 0.461434 0.185276
v -0.099170 0.459730 0.385276
v -0.099170 0.459730 0.185276
v -0.124170 0.466429 0.385276
v -0.124170 0.466429 0.185276
v -0.112111 0.461434 0.385276
v -0.112111 0.461434 0.185276
v -0.134525 0.474375 0.385276
v -0.134525 0.474375 0.185276
v -0.124170 0.466429 0.385276
v -0.124170 0.466429 0.185276
v -0.055868 0.484730 0.385276
v -0.055868 0.484730 0.185276
v -0.050873 0.496789 0.385276
v -0.050873 0.496789 0.185276
v -0.074170 0.553031 0.385276
v -0.074170 0.553031 0.185276
v -0.086229 0.558026 0.385276
v -0.086229 0.558026 0.185276
v -0.112111 0.558026 0.385276
v -0.112111 0.558026 0.185276
v -0.124170 0.553031 0.385276
v -0.124170 0.553031 0.185276
v -0.074170 0.466429 0.385276
v -0.074170 0.466429 0.185276
v -0.063814 0.474375 0.385276
v -0.063814 0.474375 0.185276
v -0.149170 0.509730 0.385276
v -0.147466 0.522671 0.385276
v -0.149170 0.509730 0.185276
v -0.147466 0.522671 0.185276
v -0.086229 0.461434 0.385276
v -0.086229 0.461434 0.185276
v -0.074170 0.466429 0.385276
v -0.074170 0.466429 0.185276
v -0.147466 0.496789 0.385276
v -0.149170 0.509730 0.385276
v -0.147466 0.496789 0.185276
v -0.149170 0.509730 0.185276
v -0.063814 0.474375 0.385276
v -0.063814 0.474375 0.185276
v -0.055868 0.484730 0.385276
v -0.055868 0.484730 0.185276
v -0.134525 0.474375 0.385276
v -0.142471 0.484730 0.385276
v -0.134525 0.474375 0.185276
v -0.142471 0.484730 0.185276
v -0.142471 0.534730 0.385276
v -0.134525 0.545085 0.385276
v -0.142471 0.534730 0.185276
v -0.134525 0.545085 0.185276
v -0.124170 0.553031 0.385276
v -0.124170 0.553031 0.185276
v -0.134525 0.545085 0.385276
v -0.134525 0.545085 0.185276
v -0.099170 0.459730 0.385276
v -0.099170 0.459730 0.185276
v -0.086229 0.461434 0.385276
v -0.086229 0.461434 0.185276
v -0.050873 0.522671 0.185276
v -0.050873 0.522671 0.385276
v -0.049170 0.509730 0.185276
v -0.050873 0.496789 0.385276
v -0.050873 0.496789 0.185276
v -0.049170 0.509730 0.385276
v -0.063814 0.545085 0.385276
v -0.063814 0.545085 0.185276
v -0.074170 0.553031 0.385276
v -0.074170 0.553031 0.185276
v -0.147466 0.522671 0.385276
v -0.142471 0.534730 0.385276
v -0.147466 0.522671 0.185276
v -0.142471 0.534730 0.185276
v -0.142471 0.484730 0.385276
v -0.147466 0.496789 0.385276
v -0.142471 0.484730 0.185276
v -0.147466 0.496789 0.185276
v -0.050873 0.522671 0.385276
v -0.050873 0.522671 0.185276
v -0.055868 0.534730 0.385276
v -0.055868 0.534730 0.185276
v -0.112111 0.558026 0.185276
v -0.112111 0.558026 0.385276
v -0.099170 0.559730 0.185276
v -0.086229 0.558026 0.385276
v -0.086229 0.558026 0.185276
v -0.099170 0.559730 0.385276
v -0.055868 0.534730 0.385276
v -0.055868 0.534730 0.185276
v -0.063814 0.545085 0.385276
v -0.063814 0.545085 0.185276
vn -0.0000 -0.0000 1.0000
vn -0.0001 -0.0000 1.0000
vn -0.2588 -0.9659 -0.0000
vn -0.2588 -0.9659 0.0001
vn -0.0000 -1.0000 -0.0000
vn -0.5000 -0.8660 -0.0000
vn -0.7071 -0.7071 -0.0000
vn -0.5000 -0.8660 -0.0001
vn 0.8660 -0.5000 -0.0000
vn 0.9659 -0.2588 -0.0001
vn 0.9659 -0.2588 -0.0000
vn 0.5000 0.8660 -0.0000
vn 0.2588 0.9659 -0.0000
vn -0.2588 0.9659 -0.0000
vn -0.5000 0.8660 -0.0000
vn 0.5000 -0.8660 -0.0000
vn 0.7071 -0.7071 -0.0000
vn -1.0000 -0.0000 -0.0000
vn -0.9659 0.2588 -0.0000
vn 0.2588 -0.9659 -0.0000
vn -0.9659 -0.2588 -0.0000
vn 0.8660 -0.5000 -0.0001
vn -0.8660 -0.5000 -0.0000
vn -0.8660 0.5000 -0.0000
vn -0.7071 0.7071 -0.0000
vn 0.2588 -0.9659 -0.0001
vn 0.9659 0.2588 -0.0000
vn 1.0000 -0.0000 -0.0000
vn 0.7071 0.7071 -0.0000
vn 0.5000 0.8660 -0.0001
vn 0.8660 0.5000 -0.0000
vn -0.0000 1.0000 -0.0000
vt 0.945639 2.559055
vt 0.827647 2.274196
vt 0.945639 1.377953
vt 1.133338 2.803669
vt 1.133338 1.133338
vt 1.377953 2.991369
vt 1.377953 0.945639
vt 1.662812 3.109361
vt 1.662812 0.827647
vt 1.968504 3.149606
vt 1.968504 0.787402
vt 2.274196 3.109361
vt 2.274196 0.827647
vt 2.559055 2.991369
vt 2.559055 0.945639
vt 2.803669 2.803669
vt 2.803669 1.133338
vt 2.991369 2.559055
vt 2.991369 1.377953
vt 3.109361 2.274196
vt 3.109361 1.662812
vt 3.149606 1.968504
vt 0.827647 1.662812
vt 0.787402 1.968504
vt 3.937008 1.968504
vt 3.869933 2.477990
vt 3.869933 1.459018
vt 3.673278 2.952756
vt 3.673278 0.984252
vt 3.360446 3.360446
vt 3.360446 0.576562
vt 0.984252 3.673278
vt 1.459018 3.869933
vt 1.968504 3.937008
vt 2.477990 3.869933
vt 2.952756 3.673278
vt 2.952756 0.263730
vt 2.477990 0.067075
vt 1.968504 0.000000
vt 1.459018 0.067075
vt 0.984252 0.263730
vt 0.576562 3.360446
vt 0.576562 0.576562
vt 0.263730 2.952756
vt 0.263730 0.984252
vt 0.067075 2.477990
vt 0.067075 1.459018
vt 0.000000 1.968504
vt -1.951663 7.874016
vt -1.951663 0.000000
vt -1.437780 7.874016
vt -1.437780 0.000000
vt -1.322288 7.874016
vt -1.322288 0.000000
vt -0.808405 7.874016
vt -0.808405 0.000000
vt -0.620311 7.874016
vt -0.620311 0.000000
vt -0.106429 7.874016
vt -0.106429 0.000000
vt -2.828916 7.874016
vt -2.828916 0.000000
vt -2.315033 7.874016
vt -2.315033 0.000000
vt 0.808405 7.874016
vt 0.808405 0.000000
vt 1.322288 7.874016
vt 1.322288 0.000000
vt 2.315033 7.874016
vt 2.315033 0.000000
vt 2.828916 7.874016
vt 2.828916 0.000000
vt -3.017010 7.874016
vt -3.017010 0.000000
vt -2.503127 7.874016
vt -2.503127 0.000000
vt 2.465546 7.874016
vt 1.951663 7.874016
vt 2.465546 0.000000
vt 1.951663 0.000000
vt 1.437780 7.874016
vt 1.437780 0.000000
vt 0.620311 7.874016
vt 0.106429 7.874016
vt 0.620311 0.000000
vt 0.106429 0.000000
vt 3.017010 7.874016
vt 2.503127 7.874016
vt 3.017010 0.000000
vt 2.503127 0.000000
vt -2.465546 7.874016
vt -2.465546 0.000000
s 0
usemtl dark.001
f 527/237/98 528/238/98 529/239/98
f 530/240/98 527/237/98 531/241/98
f 532/242/98 530/240/98 533/243/98
f 534/244/98 532/242/98 535/245/98
f 536/246/98 534/244/98 537/247/98
f 538/248/98 536/246/98 539/249/98
f 540/250/98 538/248/98 541/251/98
f 542/252/98 540/250/98 543/253/98
f 544/254/98 542/252/98 545/255/98
f 546/256/98 544/254/98 547/257/98
f 548/258/98 546/256/98 547/257/98
f 547/257/98 544/254/98 545/255/98
f 545/255/98 542/252/98 543/253/98
f 543/253/98 540/250/98 541/251/98
f 541/251/98 538/248/98 539/249/98
f 539/249/98 536/246/98 537/247/98
f 537/247/98 534/244/98 535/245/98
f 535/245/98 532/242/98 533/243/98
f 533/243/98 530/240/98 531/241/98
f 531/241/98 527/237/98 529/239/98
f 529/239/98 528/238/98 549/259/98
f 550/260/98 549/259/98 528/238/98
usemtl metal.001
f 551/261/98 552/262/98 553/263/98
f 552/262/98 554/264/98 553/263/98
f 553/263/98 554/264/98 555/265/98
f 554/264/98 556/266/98 555/265/98
f 555/265/98 556/266/98 557/267/98
f 558/238/98 559/268/98 560/260/98
f 561/237/98 559/268/98 558/238/98
f 562/240/98 559/268/98 561/237/98
f 563/242/98 564/269/98 562/240/98
f 564/269/98 559/268/98 562/240/98
f 565/244/98 564/269/98 563/242/98
f 566/246/98 567/270/98 565/244/98
f 567/270/98 564/269/98 565/244/98
f 568/248/98 567/270/98 566/246/98
f 569/271/98 567/270/98 568/248/98
f 570/250/98 569/271/98 568/248/98
f 571/252/98 572/272/98 570/250/98
f 572/272/98 569/271/98 570/250/98
f 573/254/98 572/272/98 571/252/98
f 574/256/98 556/266/98 573/254/98
f 556/266/98 572/272/98 573/254/98
f 575/258/98 556/266/98 574/256/98
f 575/258/98 576/257/98 557/267/98
f 576/257/98 577/255/98 557/267/98
f 557/267/98 556/266/98 575/258/98
f 557/267/98 577/255/98 578/273/98
f 577/255/98 579/253/98 578/273/98
f 579/253/98 580/251/98 578/273/98
f 578/273/98 580/251/98 581/274/98
f 580/251/98 582/249/98 581/274/98
f 582/249/98 583/247/98 581/274/98
f 581/274/98 583/247/98 584/275/98
f 583/247/98 585/245/98 584/275/98
f 584/275/98 585/245/98 586/276/98
f 585/245/98 587/243/98 586/276/98
f 587/243/98 588/241/98 586/276/98
f 586/276/98 588/241/98 589/277/98
f 588/241/98 590/239/98 589/277/98
f 590/239/98 591/259/98 589/277/98
f 591/259/99 560/260/99 589/277/99
f 560/260/98 592/278/98 589/277/98
f 589/277/98 592/278/98 593/279/98
f 592/278/98 594/280/98 593/279/98
f 592/278/98 560/260/98 559/268/98
f 593/279/98 594/280/98 595/281/98
f 594/280/98 596/282/98 595/281/98
f 595/281/98 596/282/98 597/283/98
f 598/284/98 597/283/98 596/282/98
s 1
f 599/285/100 600/286/101 601/287/102
f 602/288/102 601/287/102 600/286/101
f 603/289/103 604/290/103 605/291/100
f 606/292/100 605/291/100 604/290/103
f 607/293/104 608/294/104 609/295/105
f 610/296/103 609/295/105 608/294/104
f 611/297/106 612/298/106 613/299/107
f 614/300/108 613/299/107 612/298/106
f 615/301/109 616/302/109 617/303/110
f 618/304/110 617/303/110 616/302/109
f 619/305/111 620/306/111 621/307/112
f 622/308/112 621/307/112 620/306/111
f 623/309/113 624/310/113 625/311/114
f 626/312/114 625/311/114 624/310/113
f 627/313/115 628/314/116 629/315/115
f 630/316/116 629/315/115 628/314/116
f 631/297/117 632/298/117 633/299/113
f 634/300/113 633/299/113 632/298/117
f 635/314/118 636/317/115 637/316/118
f 638/318/115 637/316/118 636/317/115
f 639/309/114 640/310/114 641/311/119
f 642/312/106 641/311/119 640/310/114
f 643/319/104 644/320/120 645/321/104
f 646/322/120 645/321/104 644/320/120
f 647/323/121 648/324/122 649/325/121
f 650/326/122 649/325/121 648/324/122
f 651/324/112 652/326/112 653/323/122
f 654/325/122 653/323/122 652/326/112
f 655/327/102 656/328/102 657/285/123
f 658/286/117 657/285/123 656/328/102
f 659/288/124 660/287/124 661/286/125
f 662/327/108 663/328/108 664/285/125
f 664/285/125 661/286/125 660/287/124
f 661/286/125 664/285/125 663/328/108
f 665/320/126 666/322/126 667/319/127
f 668/321/109 667/319/127 666/322/126
f 669/307/116 670/305/121 671/308/116
f 672/306/121 671/308/116 670/305/121
f 673/303/120 674/301/118 675/304/120
f 676/302/118 675/304/120 674/301/118
f 677/289/124 678/290/124 679/291/128
f 680/292/128 679/291/128 678/290/124
f 681/315/111 682/313/111 683/316/129
f 684/317/110 685/318/110 686/314/129
f 686/314/129 683/316/129 682/313/111
f 683/316/129 686/314/129 685/318/110
f 687/293/128 688/294/128 689/295/126
f 690/296/126 689/295/126 688/294/128
o Group.001
v 0.106100 0.494730 0.385276
v 0.109097 0.501966 0.385276
v 0.106100 0.524730 0.385276
v 0.101333 0.488517 0.385276
v 0.101333 0.530943 0.385276
v 0.095120 0.483749 0.385276
v 0.095120 0.535711 0.385276
v 0.087884 0.480752 0.385276
v 0.087884 0.538708 0.385276
v 0.080120 0.479730 0.385276
v 0.080120 0.539730 0.385276
v 0.072355 0.480752 0.385276
v 0.072355 0.538708 0.385276
v 0.065120 0.483749 0.385276
v 0.065120 0.535711 0.385276
v 0.058906 0.488517 0.385276
v 0.058906 0.530943 0.385276
v 0.054139 0.494730 0.385276
v 0.054139 0.524730 0.385276
v 0.051142 0.501966 0.385276
v 0.051142 0.517495 0.385276
v 0.050120 0.509730 0.385276
v 0.109097 0.517495 0.385276
v 0.110120 0.509730 0.385276
v 0.030120 0.509730 0.385276
v 0.031823 0.496789 0.385276
v 0.031823 0.522671 0.385276
v 0.036818 0.484730 0.385276
v 0.036818 0.534730 0.385276
v 0.044764 0.474375 0.385276
v 0.044764 0.545085 0.385276
v 0.109097 0.501966 0.385276
v 0.105120 0.466429 0.385276
v 0.110120 0.509730 0.385276
v 0.106100 0.494730 0.385276
v 0.101333 0.488517 0.385276
v 0.095120 0.483749 0.385276
v 0.093061 0.461434 0.385276
v 0.087884 0.480752 0.385276
v 0.080120 0.479730 0.385276
v 0.080120 0.459730 0.385276
v 0.072355 0.480752 0.385276
v 0.067179 0.461434 0.385276
v 0.065120 0.483749 0.385276
v 0.058906 0.488517 0.385276
v 0.055120 0.466429 0.385276
v 0.054139 0.494730 0.385276
v 0.051142 0.501966 0.385276
v 0.050120 0.509730 0.385276
v 0.051142 0.517495 0.385276
v 0.054139 0.524730 0.385276
v 0.055120 0.553031 0.385276
v 0.058906 0.530943 0.385276
v 0.065120 0.535711 0.385276
v 0.067179 0.558026 0.385276
v 0.072355 0.538708 0.385276
v 0.080120 0.539730 0.385276
v 0.080120 0.559730 0.385276
v 0.087884 0.538708 0.385276
v 0.093061 0.558026 0.385276
v 0.095120 0.535711 0.385276
v 0.101333 0.530943 0.385276
v 0.105120 0.553031 0.385276
v 0.106100 0.524730 0.385276
v 0.109097 0.517495 0.385276
v 0.115475 0.474375 0.385276
v 0.115475 0.545085 0.385276
v 0.123421 0.484730 0.385276
v 0.123421 0.534730 0.385276
v 0.128416 0.496789 0.385276
v 0.128416 0.522671 0.385276
v 0.130120 0.509730 0.385276
v 0.067179 0.461434 0.385276
v 0.067179 0.461434 0.185276
v 0.080120 0.459730 0.385276
v 0.080120 0.459730 0.185276
v 0.055120 0.466429 0.385276
v 0.055120 0.466429 0.185276
v 0.067179 0.461434 0.385276
v 0.067179 0.461434 0.185276
v 0.044764 0.474375 0.385276
v 0.044764 0.474375 0.185276
v 0.055120 0.466429 0.385276
v 0.055120 0.466429 0.185276
v 0.123421 0.484730 0.385276
v 0.123421 0.484730 0.185276
v 0.128416 0.496789 0.385276
v 0.128416 0.496789 0.185276
v 0.105120 0.553031 0.385276
v 0.105120 0.553031 0.185276
v 0.093061 0.558026 0.385276
v 0.093061 0.558026 0.185276
v 0.067179 0.558026 0.385276
v 0.067179 0.558026 0.185276
v 0.055120 0.553031 0.385276
v 0.055120 0.553031 0.185276
v 0.105120 0.466429 0.385276
v 0.105120 0.466429 0.185276
v 0.115475 0.474375 0.385276
v 0.115475 0.474375 0.185276
v 0.030120 0.509730 0.385276
v 0.031823 0.522671 0.385276
v 0.030120 0.509730 0.185276
v 0.031823 0.522671 0.185276
v 0.093061 0.461434 0.385276
v 0.093061 0.461434 0.185276
v 0.105120 0.466429 0.385276
v 0.105120 0.466429 0.185276
v 0.031823 0.496789 0.385276
v 0.030120 0.509730 0.385276
v 0.031823 0.496789 0.185276
v 0.030120 0.509730 0.185276
v 0.115475 0.474375 0.385276
v 0.115475 0.474375 0.185276
v 0.123421 0.484730 0.385276
v 0.123421 0.484730 0.185276
v 0.044764 0.474375 0.385276
v 0.036818 0.484730 0.385276
v 0.044764 0.474375 0.185276
v 0.036818 0.484730 0.185276
v 0.036818 0.534730 0.385276
v 0.044764 0.545085 0.385276
v 0.036818 0.534730 0.185276
v 0.044764 0.545085 0.185276
v 0.055120 0.553031 0.385276
v 0.055120 0.553031 0.185276
v 0.044764 0.545085 0.385276
v 0.044764 0.545085 0.185276
v 0.080120 0.459730 0.385276
v 0.080120 0.459730 0.185276
v 0.093061 0.461434 0.385276
v 0.093061 0.461434 0.185276
v 0.128416 0.522671 0.185276
v 0.128416 0.522671 0.385276
v 0.130120 0.509730 0.185276
v 0.128416 0.496789 0.385276
v 0.128416 0.496789 0.185276
v 0.130120 0.509730 0.385276
v 0.115475 0.545085 0.385276
v 0.115475 0.545085 0.185276
v 0.105120 0.553031 0.385276
v 0.105120 0.553031 0.185276
v 0.031823 0.522671 0.385276
v 0.036818 0.534730 0.385276
v 0.031823 0.522671 0.185276
v 0.036818 0.534730 0.185276
v 0.036818 0.484730 0.385276
v 0.031823 0.496789 0.385276
v 0.036818 0.484730 0.185276
v 0.031823 0.496789 0.185276
v 0.128416 0.522671 0.385276
v 0.128416 0.522671 0.185276
v 0.123421 0.534730 0.385276
v 0.123421 0.534730 0.185276
v 0.067179 0.558026 0.185276
v 0.067179 0.558026 0.385276
v 0.080120 0.559730 0.185276
v 0.093061 0.558026 0.385276
v 0.093061 0.558026 0.185276
v 0.080120 0.559730 0.385276
v 0.123421 0.534730 0.385276
v 0.123421 0.534730 0.185276
v 0.115475 0.545085 0.385276
v 0.115475 0.545085 0.185276
vn -0.0000 -0.0000 1.0000
vn -0.0001 -0.0000 1.0000
vn -0.2588 -0.9659 -0.0000
vn -0.2588 -0.9659 0.0001
vn -0.0000 -1.0000 -0.0000
vn -0.5000 -0.8660 -0.0000
vn -0.7071 -0.7071 -0.0000
vn -0.5000 -0.8660 -0.0001
vn 0.8660 -0.5000 -0.0000
vn 0.9659 -0.2588 -0.0001
vn 0.9659 -0.2588 -0.0000
vn 0.5000 0.8660 -0.0000
vn 0.2588 0.9659 -0.0000
vn -0.2588 0.9659 -0.0000
vn -0.5000 0.8660 -0.0000
vn 0.5000 -0.8660 -0.0000
vn 0.7071 -0.7071 -0.0000
vn -1.0000 -0.0000 -0.0000
vn -0.9659 0.2588 -0.0000
vn 0.2588 -0.9659 -0.0000
vn -0.9659 -0.2588 -0.0000
vn 0.8660 -0.5000 -0.0001
vn -0.8660 -0.5000 -0.0000
vn -0.8660 0.5000 -0.0000
vn -0.7071 0.7071 -0.0000
vn 0.2588 -0.9659 -0.0001
vn 0.9659 0.2588 -0.0000
vn 1.0000 -0.0000 -0.0000
vn 0.7071 0.7071 -0.0000
vn 0.5000 0.8660 -0.0001
vn 0.8660 0.5000 -0.0000
vn -0.0000 1.0000 -0.0000
vt 0.945639 2.559055
vt 0.827647 2.274196
vt 0.945639 1.377953
vt 1.133338 2.803669
vt 1.133338 1.133338
vt 1.377953 2.991369
vt 1.377953 0.945639
vt 1.662812 3.109361
vt 1.662812 0.827647
vt 1.968504 3.149606
vt 1.968504 0.787402
vt 2.274196 3.109361
vt 2.274196 0.827647
vt 2.559055 2.991369
vt 2.559055 0.945639
vt 2.803669 2.803669
vt 2.803669 1.133338
vt 2.991369 2.559055
vt 2.991369 1.377953
vt 3.109361 2.274196
vt 3.109361 1.662812
vt 3.149606 1.968504
vt 0.827647 1.662812
vt 0.787402 1.968504
vt 3.937008 1.968504
vt 3.869933 2.477990
vt 3.869933 1.459018
vt 3.673278 2.952756
vt 3.673278 0.984252
vt 3.360446 3.360446
vt 3.360446 0.576562
vt 0.984252 3.673278
vt 1.459018 3.869933
vt 1.968504 3.937008
vt 2.477990 3.869933
vt 2.952756 3.673278
vt 2.952756 0.263730
vt 2.477990 0.067075
vt 1.968504 0.000000
vt 1.459018 0.067075
vt 0.984252 0.263730
vt 0.576562 3.360446
vt 0.576562 0.576562
vt 0.263730 2.952756
vt 0.263730 0.984252
vt 0.067075 2.477990
vt 0.067075 1.459018
vt 0.000000 1.968504
vt -1.951663 7.874016
vt -1.951663 0.000000
vt -1.437780 7.874016
vt -1.437780 0.000000
vt -1.322288 7.874016
vt -1.322288 0.000000
vt -0.808405 7.874016
vt -0.808405 0.000000
vt -0.620311 7.874016
vt -0.620311 0.000000
vt -0.106429 7.874016
vt -0.106429 0.000000
vt -2.828916 7.874016
vt -2.828916 0.000000
vt -2.315033 7.874016
vt -2.315033 0.000000
vt 0.808405 7.874016
vt 0.808405 0.000000
vt 1.322288 7.874016
vt 1.322288 0.000000
vt 2.315033 7.874016
vt 2.315033 0.000000
vt 2.828916 7.874016
vt 2.828916 0.000000
vt -3.017010 7.874016
vt -3.017010 0.000000
vt -2.503127 7.874016
vt -2.503127 0.000000
vt 2.465546 7.874016
vt 1.951663 7.874016
vt 2.465546 0.000000
vt 1.951663 0.000000
vt 1.437780 7.874016
vt 1.437780 0.000000
vt 0.620311 7.874016
vt 0.106429 7.874016
vt 0.620311 0.000000
vt 0.106429 0.000000
vt 3.017010 7.874016
vt 2.503127 7.874016
vt 3.017010 0.000000
vt 2.503127 0.000000
vt -2.465546 7.874016
vt -2.465546 0.000000
s 0
usemtl dark.001
f 691/329/130 692/330/130 693/331/130
f 694/332/130 691/329/130 695/333/130
f 696/334/130 694/332/130 697/335/130
f 698/336/130 696/334/130 699/337/130
f 700/338/130 698/336/130 701/339/130
f 702/340/130 700/338/130 703/341/130
f 704/342/130 702/340/130 705/343/130
f 706/344/130 704/342/130 707/345/130
f 708/346/130 706/344/130 709/347/130
f 710/348/130 708/346/130 711/349/130
f 712/350/130 710/348/130 711/349/130
f 711/349/130 708/346/130 709/347/130
f 709/347/130 706/344/130 707/345/130
f 707/345/130 704/342/130 705/343/130
f 705/343/130 702/340/130 703/341/130
f 703/341/130 700/338/130 701/339/130
f 701/339/130 698/336/130 699/337/130
f 699/337/130 696/334/130 697/335/130
f 697/335/130 694/332/130 695/333/130
f 695/333/130 691/329/130 693/331/130
f 693/331/130 692/330/130 713/351/130
f 714/352/130 713/351/130 692/330/130
usemtl metal.001
f 715/353/130 716/354/130 717/355/130
f 716/354/130 718/356/130 717/355/130
f 717/355/130 718/356/130 719/357/130
f 718/356/130 720/358/130 719/357/130
f 719/357/130 720/358/130 721/359/130
f 722/330/130 723/360/130 724/352/130
f 725/329/130 723/360/130 722/330/130
f 726/332/130 723/360/130 725/329/130
f 727/334/130 728/361/130 726/332/130
f 728/361/130 723/360/130 726/332/130
f 729/336/130 728/361/130 727/334/130
f 730/338/130 731/362/130 729/336/130
f 731/362/130 728/361/130 729/336/130
f 732/340/130 731/362/130 730/338/130
f 733/363/130 731/362/130 732/340/130
f 734/342/130 733/363/130 732/340/130
f 735/344/130 736/364/130 734/342/130
f 736/364/130 733/363/130 734/342/130
f 737/346/130 736/364/130 735/344/130
f 738/348/130 720/358/130 737/346/130
f 720/358/130 736/364/130 737/346/130
f 739/350/130 740/349/130 721/359/130
f 739/350/130 720/358/130 738/348/130
f 740/349/130 741/347/130 721/359/130
f 721/359/130 720/358/130 739/350/130
f 721/359/130 741/347/130 742/365/130
f 741/347/130 743/345/130 742/365/130
f 743/345/130 744/343/130 742/365/130
f 742/365/130 744/343/130 745/366/130
f 744/343/130 746/341/130 745/366/130
f 746/341/130 747/339/130 745/366/130
f 745/366/130 747/339/130 748/367/130
f 747/339/130 749/337/130 748/367/130
f 748/367/130 749/337/130 750/368/130
f 749/337/130 751/335/130 750/368/130
f 751/335/130 752/333/130 750/368/130
f 750/368/130 752/333/130 753/369/130
f 752/333/130 754/331/130 753/369/130
f 754/331/130 755/351/130 753/369/130
f 755/351/131 724/352/131 753/369/131
f 724/352/130 756/370/130 753/369/130
f 753/369/130 756/370/130 757/371/130
f 756/370/130 758/372/130 757/371/130
f 756/370/130 724/352/130 723/360/130
f 757/371/130 758/372/130 759/373/130
f 758/372/130 760/374/130 759/373/130
f 759/373/130 760/374/130 761/375/130
f 762/376/130 761/375/130 760/374/130
s 1
f 763/377/132 764/378/133 765/379/134
f 766/380/134 765/379/134 764/378/133
f 767/381/135 768/382/135 769/383/132
f 770/384/132 769/383/132 768/382/135
f 771/385/136 772/386/136 773/387/137
f 774/388/135 773/387/137 772/386/136
f 775/389/138 776/390/138 777/391/139
f 778/392/140 777/391/139 776/390/138
f 779/393/141 780/394/141 781/395/142
f 782/396/142 781/395/142 780/394/141
f 783/397/143 784/398/143 785/399/144
f 786/400/144 785/399/144 784/398/143
f 787/401/145 788/402/145 789/403/146
f 790/404/146 789/403/146 788/402/145
f 791/405/147 792/406/148 793/407/147
f 794/408/148 793/407/147 792/406/148
f 795/389/149 796/390/149 797/391/145
f 798/392/145 797/391/145 796/390/149
f 799/406/150 800/409/147 801/408/150
f 802/410/147 801/408/150 800/409/147
f 803/401/146 804/402/146 805/403/151
f 806/404/138 805/403/151 804/402/146
f 807/411/136 808/412/152 809/413/136
f 810/414/152 809/413/136 808/412/152
f 811/415/153 812/416/154 813/417/153
f 814/418/154 813/417/153 812/416/154
f 815/416/144 816/418/144 817/415/154
f 818/417/154 817/415/154 816/418/144
f 819/419/134 820/420/134 821/377/155
f 822/378/149 821/377/155 820/420/134
f 823/380/156 824/379/156 825/378/157
f 826/419/140 827/420/140 828/377/157
f 828/377/157 825/378/157 824/379/156
f 825/378/157 828/377/157 827/420/140
f 829/412/158 830/414/158 831/411/159
f 832/413/141 831/411/159 830/414/158
f 833/399/148 834/397/153 835/400/148
f 836/398/153 835/400/148 834/397/153
f 837/395/152 838/393/150 839/396/152
f 840/394/150 839/396/152 838/393/150
f 841/381/156 842/382/156 843/383/160
f 844/384/160 843/383/160 842/382/156
f 845/407/143 846/405/143 847/408/161
f 848/409/142 849/410/142 850/406/161
f 850/406/161 847/408/161 846/405/143
f 847/408/161 850/406/161 849/410/142
f 851/385/160 852/386/160 853/387/158
f 854/388/158 853/387/158 852/386/160
